<?xml version="1.0" encoding="iso-8859-1"?>
<!-- Generator: Adobe Illustrator 19.0.0, SVG Export Plug-In . SVG Version: 6.00 Build 0)  -->
<svg version="1.1" id="Capa_1" xmlns="http://www.w3.org/2000/svg" xmlns:xlink="http://www.w3.org/1999/xlink" x="0px" y="0px"
	 viewBox="0 0 512 512" style="enable-background:new 0 0 512 512;" xml:space="preserve">
<path style="fill:#F44336;" d="M364,72c-39.648,0-78.88,14.912-108,40.544C226.88,86.912,187.648,72,148,72
	C65.024,72,0,133.248,0,211.424c0,114.912,222.144,258.144,247.456,274.08C250.08,487.2,253.024,488,256,488
	c2.912,0,5.824-0.768,8.416-2.368C356.352,428.864,512,307.296,512,211.424C512,133.248,446.976,72,364,72z"/>
<g>
	<path style="fill:#FFCA28;" d="M448,104c-35.296,0-64-28.704-64-64c0-8.832-7.168-16-16-16s-16,7.168-16,16
		c0,35.296-28.704,64-64,64c-8.832,0-16,7.168-16,16s7.168,16,16,16c35.296,0,64,28.704,64,64c0,8.832,7.168,16,16,16
		s16-7.168,16-16c0-35.296,28.704-64,64-64c8.832,0,16-7.168,16-16S456.832,104,448,104z"/>
	<path style="fill:#FFCA28;" d="M224,344c-35.296,0-64-28.704-64-64c0-8.832-7.168-16-16-16s-16,7.168-16,16
		c0,35.296-28.704,64-64,64c-8.832,0-16,7.168-16,16s7.168,16,16,16c35.296,0,64,28.704,64,64c0,8.832,7.168,16,16,16
		s16-7.168,16-16c0-35.296,28.704-64,64-64c8.832,0,16-7.168,16-16S232.832,344,224,344z"/>
</g>
<g>
</g>
<g>
</g>
<g>
</g>
<g>
</g>
<g>
</g>
<g>
</g>
<g>
</g>
<g>
</g>
<g>
</g>
<g>
</g>
<g>
</g>
<g>
</g>
<g>
</g>
<g>
</g>
<g>
</g>
</svg>
