<?xml version="1.0" encoding="iso-8859-1"?>
<!-- Generator: Adobe Illustrator 19.0.0, SVG Export Plug-In . SVG Version: 6.00 Build 0)  -->
<svg version="1.1" id="Capa_1" xmlns="http://www.w3.org/2000/svg" xmlns:xlink="http://www.w3.org/1999/xlink" x="0px" y="0px"
	 viewBox="0 0 512 512" style="enable-background:new 0 0 512 512;" xml:space="preserve">
<path style="fill:#6D4C41;" d="M431.008,289.152C442.016,275.328,448,258.208,448,240c0-34.56-22.016-64.032-52.736-75.232
	C398.304,158.496,400,151.424,400,144c0-26.464-21.536-48-48-48h-96c-31.328,0-32-46.08-32-48.032C223.936,39.168,216.8,32,208,32
	h-16c-44.096,0-80,35.904-80,80c0,18.624,6.4,35.776,17.088,49.376c-15.808,2.944-30.208,10.56-41.376,22.048
	C72.416,198.336,64,218.432,64,240c0,18.528,6.336,35.584,16.928,49.152c-19.968,3.136-38.368,12.416-52.864,26.912
	C10.24,333.856,0,358.592,0,384c0,52.928,43.072,96,96,96h320c25.376,0,50.144-10.208,67.936-28.064
	C501.792,434.144,512,409.376,512,384C512,336.16,476.832,296.416,431.008,289.152z"/>
<g>
	<circle style="fill:#FAFAFA;" cx="192" cy="256" r="32"/>
	<circle style="fill:#FAFAFA;" cx="320" cy="256" r="32"/>
	<path style="fill:#FAFAFA;" d="M348.512,326.016C345.472,322.208,340.864,320,336,320H176c-4.864,0-9.44,2.208-12.512,6.016
		c-3.04,3.808-4.16,8.768-3.104,13.504C170.528,384.576,209.856,416,256,416c46.176,0,85.504-31.456,95.616-76.512
		C352.672,334.784,351.52,329.824,348.512,326.016z"/>
</g>
<g>
</g>
<g>
</g>
<g>
</g>
<g>
</g>
<g>
</g>
<g>
</g>
<g>
</g>
<g>
</g>
<g>
</g>
<g>
</g>
<g>
</g>
<g>
</g>
<g>
</g>
<g>
</g>
<g>
</g>
</svg>
