<?xml version="1.0" encoding="iso-8859-1"?>
<!-- Generator: Adobe Illustrator 19.0.0, SVG Export Plug-In . SVG Version: 6.00 Build 0)  -->
<svg version="1.1" id="Capa_1" xmlns="http://www.w3.org/2000/svg" xmlns:xlink="http://www.w3.org/1999/xlink" x="0px" y="0px"
	 viewBox="0 0 512 512" style="enable-background:new 0 0 512 512;" xml:space="preserve">
<circle style="fill:#FFCA28;" cx="256" cy="256" r="256"/>
<path style="fill:#FAFAFA;" d="M438.016,294.336c-3.008-4-7.744-6.336-12.736-6.336H86.72c-5.024,0-9.728,2.336-12.736,6.336
	c-3.04,4-4.032,9.152-2.656,14.016C94.464,390.56,170.4,448,256,448s161.536-57.44,184.672-139.648
	C442.016,303.488,441.056,298.336,438.016,294.336z"/>
<circle style="fill:#6D4C41;" cx="352" cy="192" r="32"/>
<path style="fill:#263238;" d="M408.32,50.752c-9.536-7.104-19.424-13.76-29.92-19.488l-169.664,99.84
	c-40.48-7.008-82.72-1.248-120.032,17.856C83.36,151.712,80,157.216,80,163.2c0,12.736,2.688,24.896,7.52,35.936L0.16,253.12
	C0.128,254.08,0,255.008,0,256c0,11.328,0.992,22.4,2.432,33.312l103.04-63.68C123.04,244.16,148.032,256,176,256
	c52.928,0,96-41.632,96-92.8c0-6.016-3.36-11.488-8.704-14.24c-4.064-2.08-8.32-3.68-12.48-5.472l157.312-92.576
	C408.192,50.88,408.256,50.784,408.32,50.752z"/>
<g>
</g>
<g>
</g>
<g>
</g>
<g>
</g>
<g>
</g>
<g>
</g>
<g>
</g>
<g>
</g>
<g>
</g>
<g>
</g>
<g>
</g>
<g>
</g>
<g>
</g>
<g>
</g>
<g>
</g>
</svg>
