<?xml version="1.0" encoding="iso-8859-1"?>
<!-- Generator: Adobe Illustrator 19.0.0, SVG Export Plug-In . SVG Version: 6.00 Build 0)  -->
<svg version="1.1" id="Capa_1" xmlns="http://www.w3.org/2000/svg" xmlns:xlink="http://www.w3.org/1999/xlink" x="0px" y="0px"
	 viewBox="0 0 511.995 511.995" style="enable-background:new 0 0 511.995 511.995;" xml:space="preserve">
<path style="fill:#6D4C41;" d="M467.741,227.71c-122.688,101.888-300.8,101.888-423.52,0
	C152.189,180.254,359.837,180.286,467.741,227.71z"/>
<path style="fill:#FAFAFA;" d="M399.997,174.078h-288c-8.832,0-16,9.088-16,17.92c0,26.464,21.536,48,48,48h224
	c26.464,0,48-21.536,48-48v-1.92C415.997,181.246,408.829,174.078,399.997,174.078z"/>
<path style="fill:#F44336;" d="M506.685,212.062L390.109,107.678c-19.36-17.056-46.24-27.68-70.112-27.68
	c-21.728,0-45.472,8.672-64,22.816c-18.528-14.144-42.304-22.816-64-22.816c-23.904,0-50.752,10.624-70.176,27.776L5.341,212.094
	c-4.352,3.872-6.208,9.76-4.96,15.424c27.072,120.384,132.192,204.48,255.616,204.48c123.392,0,228.544-84.096,255.616-204.48
	C512.861,221.854,511.005,215.966,506.685,212.062z M44.221,227.71c107.968-47.456,315.616-47.424,423.52,0
	C345.053,329.598,166.941,329.598,44.221,227.71z"/>
<g>
</g>
<g>
</g>
<g>
</g>
<g>
</g>
<g>
</g>
<g>
</g>
<g>
</g>
<g>
</g>
<g>
</g>
<g>
</g>
<g>
</g>
<g>
</g>
<g>
</g>
<g>
</g>
<g>
</g>
</svg>
