<?xml version="1.0" encoding="iso-8859-1"?>
<!-- Generator: Adobe Illustrator 19.0.0, SVG Export Plug-In . SVG Version: 6.00 Build 0)  -->
<svg version="1.1" id="Capa_1" xmlns="http://www.w3.org/2000/svg" xmlns:xlink="http://www.w3.org/1999/xlink" x="0px" y="0px"
	 viewBox="0 0 512 512" style="enable-background:new 0 0 512 512;" xml:space="preserve">
<g>
	<path style="fill:#F44336;" d="M496,143.909c-31.232,0-106.656-45.312-146.912-73.856c-1.216-0.864-2.528-1.536-3.936-2.048
		c-26.72-9.344-62.88-1.344-89.152,18.72c-26.208-20.064-62.432-28.128-89.152-18.72c-1.408,0.512-2.72,1.184-3.904,2.016
		C122.432,98.597,46.752,143.909,16,143.909c-8.832,0-16,7.168-16,16c0,36.48,48.16,64,112,64c34.944,0,66.88-8.48,87.392-23.648
		c30.56,30.496,82.848,30.144,112.96,0.352c20.736,14.816,52.672,23.296,87.648,23.296c63.84,0,112-27.52,112-64
		C512,151.077,504.832,143.909,496,143.909z"/>
	<path style="fill:#F44336;" d="M465.056,255.941c-70.56-4.704-142.816,5.952-209.056,30.848
		c-66.272-24.928-138.432-35.584-209.088-30.848c-4.928,0.352-9.44,2.944-12.224,7.072c-2.752,4.128-3.456,9.28-1.888,14.016
		c32.608,97.248,119.808,164.352,222.144,170.88c0.384,0,0.704,0,1.056,0c0.352,0,0.672,0,1.024-0.032
		c102.368-6.528,189.568-73.632,222.144-170.88c1.6-4.704,0.896-9.888-1.888-14.016
		C474.528,258.885,470.016,256.293,465.056,255.941z"/>
</g>
<g>
</g>
<g>
</g>
<g>
</g>
<g>
</g>
<g>
</g>
<g>
</g>
<g>
</g>
<g>
</g>
<g>
</g>
<g>
</g>
<g>
</g>
<g>
</g>
<g>
</g>
<g>
</g>
<g>
</g>
</svg>
