<?xml version="1.0" encoding="iso-8859-1"?>
<!-- Generator: Adobe Illustrator 19.0.0, SVG Export Plug-In . SVG Version: 6.00 Build 0)  -->
<svg version="1.1" id="Capa_1" xmlns="http://www.w3.org/2000/svg" xmlns:xlink="http://www.w3.org/1999/xlink" x="0px" y="0px"
	 viewBox="0 0 512 512" style="enable-background:new 0 0 512 512;" xml:space="preserve">
<path style="fill:#F44336;" d="M364,48c-39.648,0-78.912,14.912-108,40.512C226.912,62.912,187.648,48,148,48
	C65.024,48,0,109.248,0,187.424C0,302.336,222.144,445.6,247.456,461.536C250.08,463.2,253.024,464,256,464
	c2.912,0,5.824-0.768,8.416-2.368C356.384,404.864,512,283.296,512,187.424C512,109.248,447.008,48,364,48z"/>
<g>
	<path style="fill:#FFCA28;" d="M13.952,240.416c5.024,10.528,11.072,21.088,18.272,31.584h447.712
		c7.168-10.56,13.408-21.088,18.368-31.52c-0.8-0.128-1.472-0.48-2.304-0.48H16C15.264,240,14.656,240.32,13.952,240.416z"/>
	<path style="fill:#FFCA28;" d="M224,272c-2.432,0-4.864-0.544-7.136-1.664c-10.08-5.024-61.152-30.72-74.816-44.384
		c-18.72-18.72-18.72-49.152,0-67.872s49.152-18.72,67.872,0c14.016,14.016,24.672,65.664,29.824,95.2
		c1.056,5.92-1.344,11.936-6.176,15.552C230.752,270.912,227.392,272,224,272z M176,176c-4.096,0-8.192,1.568-11.328,4.672
		c-6.24,6.24-6.24,16.384,0,22.624c4.608,4.576,20.256,13.888,37.024,23.008c-5.024-21.728-10.656-40.896-14.528-45.728
		C184.064,177.536,180.032,176,176,176z M187.328,180.672h0.32H187.328z"/>
	<path style="fill:#FFCA28;" d="M224,272c-3.392,0-6.752-1.088-9.568-3.168c-4.832-3.616-7.232-9.632-6.208-15.552
		c5.152-29.536,15.84-81.216,29.824-95.2c18.72-18.72,49.184-18.72,67.872,0c18.72,18.72,18.72,49.152,0,67.872
		c-13.664,13.664-64.704,39.36-74.816,44.384C228.864,271.456,226.432,272,224,272z M260.832,180.576
		c-3.872,4.864-9.536,24-14.528,45.76c16.768-9.152,32.416-18.464,37.024-23.008c6.24-6.24,6.24-16.384,0-22.624
		C277.12,174.496,267.072,174.464,260.832,180.576z"/>
	<path style="fill:#FFCA28;" d="M176,336c-3.36,0-6.72-1.024-9.6-3.2c-7.072-5.312-8.512-15.328-3.2-22.4l48-64
		c5.312-7.072,15.328-8.48,22.4-3.2c7.072,5.312,8.512,15.328,3.2,22.4l-48,64C185.664,333.792,180.864,336,176,336z"/>
	<path style="fill:#FFCA28;" d="M272,336c-4.864,0-9.664-2.208-12.8-6.4l-48-64c-5.312-7.072-3.872-17.088,3.2-22.4
		c7.072-5.344,17.088-3.904,22.4,3.2l48,64c5.312,7.072,3.872,17.088-3.2,22.4C278.72,334.976,275.36,336,272,336z"/>
</g>
<g>
</g>
<g>
</g>
<g>
</g>
<g>
</g>
<g>
</g>
<g>
</g>
<g>
</g>
<g>
</g>
<g>
</g>
<g>
</g>
<g>
</g>
<g>
</g>
<g>
</g>
<g>
</g>
<g>
</g>
</svg>
