<?xml version="1.0" encoding="iso-8859-1"?>
<!-- Generator: Adobe Illustrator 19.0.0, SVG Export Plug-In . SVG Version: 6.00 Build 0)  -->
<svg version="1.1" id="Capa_1" xmlns="http://www.w3.org/2000/svg" xmlns:xlink="http://www.w3.org/1999/xlink" x="0px" y="0px"
	 viewBox="0 0 512 512" style="enable-background:new 0 0 512 512;" xml:space="preserve">
<circle style="fill:#FFCA28;" cx="256" cy="256" r="256"/>
<g>
	<path style="fill:#6D4C41;" d="M255.68,448.32c-85.6,0-161.536-57.44-184.672-139.648c-2.432-8.512,2.528-17.344,11.04-19.744
		c8.48-2.368,17.344,2.56,19.744,11.072c19.264,68.512,82.56,116.352,153.888,116.352S390.272,368.512,409.568,300
		c2.4-8.512,11.104-13.504,19.744-11.072c8.512,2.4,13.44,11.264,11.072,19.744C417.184,390.88,341.248,448.32,255.68,448.32z"/>
	<path style="fill:#6D4C41;" d="M399.68,208.32c-8.832,0-16-7.168-16-16c0-17.632-14.336-32-32-32s-32,14.368-32,32
		c0,8.832-7.168,16-16,16s-16-7.168-16-16c0-35.296,28.704-64,64-64s64,28.704,64,64C415.68,201.184,408.512,208.32,399.68,208.32z"
		/>
	<path style="fill:#6D4C41;" d="M207.68,208.32c-8.832,0-16-7.168-16-16c0-17.632-14.368-32-32-32s-32,14.368-32,32
		c0,8.832-7.168,16-16,16s-16-7.168-16-16c0-35.296,28.704-64,64-64s64,28.704,64,64C223.68,201.184,216.512,208.32,207.68,208.32z"
		/>
</g>
<g>
</g>
<g>
</g>
<g>
</g>
<g>
</g>
<g>
</g>
<g>
</g>
<g>
</g>
<g>
</g>
<g>
</g>
<g>
</g>
<g>
</g>
<g>
</g>
<g>
</g>
<g>
</g>
<g>
</g>
</svg>
