<?xml version="1.0" encoding="iso-8859-1"?>
<!-- Generator: Adobe Illustrator 19.0.0, SVG Export Plug-In . SVG Version: 6.00 Build 0)  -->
<svg version="1.1" id="Capa_1" xmlns="http://www.w3.org/2000/svg" xmlns:xlink="http://www.w3.org/1999/xlink" x="0px" y="0px"
	 viewBox="0 0 512 512" style="enable-background:new 0 0 512 512;" xml:space="preserve">
<path style="fill:#FFCA28;" d="M470.816,192.611C443.264,98.787,354.944,32.003,256,32.003S68.736,98.787,41.184,192.611
	C17.6,196.899,0,223.203,0,256.003c0,32.768,17.6,59.104,41.184,63.36C68.768,413.219,157.056,480.003,256,480.003
	s187.232-66.784,214.816-160.64C494.4,315.107,512,288.771,512,256.003C512,223.203,494.4,196.899,470.816,192.611z"/>
<path style="fill:#6D4C41;" d="M256,160.003c-5.12,0-10.144-2.464-13.248-7.04c-4.96-7.296-3.04-17.248,4.288-22.208
	c12.256-8.32,26.816-21.12,26.432-34.88c-0.448-15.616-19.168-30.24-25.664-34.144c-7.616-4.512-10.08-14.368-5.536-21.92
	c4.512-7.616,14.368-10.08,21.92-5.536c4.128,2.464,40.224,25.056,41.248,60.704c0.64,22.688-12.96,43.648-40.48,62.272
	C262.208,159.107,259.104,160.003,256,160.003z"/>
<path style="fill:#F44336;" d="M404.704,294.755c-2.976-4.256-7.84-6.752-13.024-6.752H120.32c-5.184,0-10.048,2.496-13.056,6.752
	c-3.008,4.224-3.776,9.632-2.048,14.528c22.24,63.808,82.848,106.72,150.784,106.72s128.544-42.912,150.784-106.72
	C408.512,304.387,407.712,298.979,404.704,294.755z"/>
<g>
	<circle style="fill:#6D4C41;" cx="160" cy="192.003" r="32"/>
	<circle style="fill:#6D4C41;" cx="352" cy="192.003" r="32"/>
</g>
<g>
</g>
<g>
</g>
<g>
</g>
<g>
</g>
<g>
</g>
<g>
</g>
<g>
</g>
<g>
</g>
<g>
</g>
<g>
</g>
<g>
</g>
<g>
</g>
<g>
</g>
<g>
</g>
<g>
</g>
</svg>
