<?xml version="1.0" encoding="iso-8859-1"?>
<!-- Generator: Adobe Illustrator 19.0.0, SVG Export Plug-In . SVG Version: 6.00 Build 0)  -->
<svg version="1.1" id="Capa_1" xmlns="http://www.w3.org/2000/svg" xmlns:xlink="http://www.w3.org/1999/xlink" x="0px" y="0px"
	 viewBox="0 0 512 512" style="enable-background:new 0 0 512 512;" xml:space="preserve">
<circle style="fill:#FFCA28;" cx="256" cy="256" r="256"/>
<g>
	<path style="fill:#6D4C41;" d="M191.68,192.32h-64c-8.832,0-16-7.168-16-16s7.168-16,16-16h64c8.832,0,16,7.168,16,16
		S200.512,192.32,191.68,192.32z"/>
	<path style="fill:#6D4C41;" d="M383.68,192.32h-64c-8.832,0-16-7.168-16-16s7.168-16,16-16h64c8.832,0,16,7.168,16,16
		S392.512,192.32,383.68,192.32z"/>
</g>
<path style="fill:#FAFAFA;" d="M503.488,320.32H383.68v-48c0-8.832-7.168-16-16-16h-224c-8.832,0-16,7.168-16,16v48H8.512
	c2.848,10.944,6.24,21.664,10.464,32H127.68v48c0,8.832,7.168,16,16,16h224c8.832,0,16-7.168,16-16v-48h109.376
	C497.248,342.016,500.64,331.296,503.488,320.32z"/>
<g>
</g>
<g>
</g>
<g>
</g>
<g>
</g>
<g>
</g>
<g>
</g>
<g>
</g>
<g>
</g>
<g>
</g>
<g>
</g>
<g>
</g>
<g>
</g>
<g>
</g>
<g>
</g>
<g>
</g>
</svg>
