<?xml version="1.0" encoding="iso-8859-1"?>
<!-- Generator: Adobe Illustrator 19.0.0, SVG Export Plug-In . SVG Version: 6.00 Build 0)  -->
<svg version="1.1" id="Capa_1" xmlns="http://www.w3.org/2000/svg" xmlns:xlink="http://www.w3.org/1999/xlink" x="0px" y="0px"
	 viewBox="0 0 512 512" style="enable-background:new 0 0 512 512;" xml:space="preserve">
<circle style="fill:#FFCA28;" cx="256" cy="256" r="256"/>
<g>
	<path style="fill:#6D4C41;" d="M352,288c-35.296,0-64-28.704-64-64c0-8.832,7.168-16,16-16s16,7.168,16,16
		c0,17.632,14.336,32,32,32s32-14.368,32-32c0-8.832,7.168-16,16-16s16,7.168,16,16C416,259.296,387.296,288,352,288z"/>
	<path style="fill:#6D4C41;" d="M160,288c-35.296,0-64-28.704-64-64c0-8.832,7.168-16,16-16s16,7.168,16,16
		c0,17.632,14.368,32,32,32s32-14.368,32-32c0-8.832,7.168-16,16-16s16,7.168,16,16C224,259.296,195.296,288,160,288z"/>
	<path style="fill:#6D4C41;" d="M357.824,426.176c-4.096,0-8.192-1.568-11.328-4.672c-48.384-48.384-132.672-48.384-181.024,0
		c-6.24,6.24-16.384,6.24-22.624,0s-6.24-16.384,0-22.624C173.088,368.672,213.248,352,256,352s82.912,16.672,113.12,46.88
		c6.24,6.24,6.24,16.384,0,22.624C365.984,424.64,361.92,426.176,357.824,426.176z"/>
</g>
<path style="fill:#03A9F4;" d="M125.952,8.16c-5.664-10.08-22.24-10.08-27.904,0C89.696,23.04,48,98.784,48,128
	c0,35.296,28.704,64,64,64s64-28.704,64-64C176,98.784,134.304,23.04,125.952,8.16z"/>
<g>
</g>
<g>
</g>
<g>
</g>
<g>
</g>
<g>
</g>
<g>
</g>
<g>
</g>
<g>
</g>
<g>
</g>
<g>
</g>
<g>
</g>
<g>
</g>
<g>
</g>
<g>
</g>
<g>
</g>
</svg>
