<?xml version="1.0" encoding="iso-8859-1"?>
<!-- Generator: Adobe Illustrator 19.0.0, SVG Export Plug-In . SVG Version: 6.00 Build 0)  -->
<svg version="1.1" id="Capa_1" xmlns="http://www.w3.org/2000/svg" xmlns:xlink="http://www.w3.org/1999/xlink" x="0px" y="0px"
	 viewBox="0 0 512.373 512.373" style="enable-background:new 0 0 512.373 512.373;" xml:space="preserve">
<path style="fill:#F44336;" d="M481.882,136.117c31.008-69.248,2.176-124.832,0.896-127.264
	c-3.456-6.464-10.688-10.176-18.016-8.416c-7.136,1.792-12.096,7.776-12.096,15.136c0,0.16-2.144,17.12-32.96,44.32
	c-45.728-38.496-103.264-59.52-163.52-59.52c-60.224,0-117.76,21.056-163.52,59.52c-30.336-26.784-32.896-43.52-32.96-43.52l0,0
	c0-7.328-4.992-13.76-12.128-15.52c-7.168-1.76-14.528,1.536-18.016,8c-1.28,2.4-30.08,58.016,0.928,127.264
	C10.65,173.045,0.186,214.453,0.186,256.373c0,141.152,114.848,256,256,256s256-114.848,256-256
	C512.186,214.453,501.722,173.045,481.882,136.117z"/>
<g>
	<path style="fill:#263238;" d="M137.562,131.125c-6.24-6.24-16.384-6.24-22.624,0c-12.096,12.064-18.752,28.16-18.752,45.248
		s6.656,33.184,18.752,45.248c12.064,12.096,28.16,18.752,45.248,18.752s33.184-6.656,45.248-18.752c6.24-6.24,6.24-16.384,0-22.624
		L137.562,131.125z"/>
	<path style="fill:#263238;" d="M397.434,131.125c-6.24-6.24-16.384-6.24-22.624,0l-67.872,67.872c-6.24,6.24-6.24,16.384,0,22.624
		c12.48,12.48,28.864,18.72,45.248,18.72s32.768-6.24,45.248-18.72c12.096-12.064,18.752-28.16,18.752-45.248
		S409.53,143.189,397.434,131.125z"/>
</g>
<path style="fill:#FAFAFA;" d="M438.202,294.709c-3.008-4-7.744-6.336-12.736-6.336H86.906c-5.024,0-9.728,2.336-12.736,6.336
	c-3.04,4-4.032,9.152-2.656,14.016c23.136,82.208,99.072,139.648,184.672,139.648s161.536-57.44,184.672-139.648
	C442.202,303.861,441.242,298.709,438.202,294.709z"/>
<g>
</g>
<g>
</g>
<g>
</g>
<g>
</g>
<g>
</g>
<g>
</g>
<g>
</g>
<g>
</g>
<g>
</g>
<g>
</g>
<g>
</g>
<g>
</g>
<g>
</g>
<g>
</g>
<g>
</g>
</svg>
