<?xml version="1.0" encoding="iso-8859-1"?>
<!-- Generator: Adobe Illustrator 19.0.0, SVG Export Plug-In . SVG Version: 6.00 Build 0)  -->
<svg version="1.1" id="Capa_1" xmlns="http://www.w3.org/2000/svg" xmlns:xlink="http://www.w3.org/1999/xlink" x="0px" y="0px"
	 viewBox="0 0 512 512" style="enable-background:new 0 0 512 512;" xml:space="preserve">
<g>
	<path style="fill:#F44336;" d="M240,451.6c0-2.464,0.576-4.928,1.696-7.168l41.696-83.36l-84.256-56.16
		c-4.48-2.976-7.136-7.968-7.136-13.312s2.656-10.336,7.136-13.312l76.032-50.688l-76.032-50.688
		c-3.968-2.656-6.56-6.912-7.04-11.648c-0.512-4.736,1.152-9.44,4.48-12.864L240,107.984V80.496
		C213.216,62.352,180.928,51.6,148,51.6C65.024,51.6,0,112.848,0,191.024c0,107.392,193.92,239.488,240,269.344V451.6z"/>
	<path style="fill:#F44336;" d="M364,51.6c-32.928,0-65.216,10.752-92,28.896v34.016c0,4.192-1.632,8.192-4.576,11.2l-34.496,35.264
		l79.968,53.312c4.416,2.976,7.104,7.968,7.104,13.312s-2.688,10.336-7.136,13.312L236.832,291.6l76.032,50.688
		c6.72,4.48,9.024,13.248,5.44,20.48L272,455.376v5.024c92.672-58.528,240-176.064,240-269.376C512,112.848,447.008,51.6,364,51.6z"
		/>
</g>
<g>
</g>
<g>
</g>
<g>
</g>
<g>
</g>
<g>
</g>
<g>
</g>
<g>
</g>
<g>
</g>
<g>
</g>
<g>
</g>
<g>
</g>
<g>
</g>
<g>
</g>
<g>
</g>
<g>
</g>
</svg>
