<?xml version="1.0" encoding="iso-8859-1"?>
<!-- Generator: Adobe Illustrator 19.0.0, SVG Export Plug-In . SVG Version: 6.00 Build 0)  -->
<svg version="1.1" id="Capa_1" xmlns="http://www.w3.org/2000/svg" xmlns:xlink="http://www.w3.org/1999/xlink" x="0px" y="0px"
	 viewBox="0 0 512 512" style="enable-background:new 0 0 512 512;" xml:space="preserve">
<circle style="fill:#F44336;" cx="256" cy="256" r="256"/>
<path style="fill:#263238;" d="M206.176,202.688L206.176,202.688l-68.128-55.136c-6.848-5.536-16.96-4.448-22.496,2.4
	c-5.568,6.848-4.48,16.928,2.4,22.496l33.088,26.784C137.28,207.648,128,222.72,128,240c0,26.464,21.536,48,48,48s48-21.536,48-48
	C224,225.44,217.504,211.84,206.176,202.688L206.176,202.688z"/>
<path style="fill:#FAFAFA;" d="M176,256c-8.832,0-16-7.168-16-16s7.168-16,16-16c4.672,0,8.032,1.92,10.016,3.52l0.032,0.032
	C189.824,230.624,192,235.136,192,240C192,248.832,184.832,256,176,256z"/>
<path style="fill:#263238;" d="M396.448,149.952c-5.536-6.88-15.616-7.936-22.496-2.368l-68.128,55.072
	C294.496,211.808,288,225.408,288,240c0,26.464,21.536,48,48,48s48-21.536,48-48c0-17.28-9.28-32.352-23.04-40.8l33.088-26.752
	C400.928,166.88,401.984,156.8,396.448,149.952z"/>
<path style="fill:#FAFAFA;" d="M336,224c8.8,0,16,7.168,16,16s-7.2,16-16,16s-16-7.168-16-16c0-4.864,2.144-9.408,5.952-12.448
	C327.936,225.92,331.328,224,336,224z"/>
<path style="fill:#263238;" d="M336,416c-3.968,0-7.936-1.472-11.04-4.416c-38.656-36.8-99.264-36.768-137.952,0
	c-6.368,6.048-16.512,5.888-22.624-0.576c-6.08-6.4-5.856-16.544,0.576-22.624c51.008-48.544,131.008-48.608,182.048,0
	c6.4,6.08,6.656,16.224,0.576,22.624C344.448,414.336,340.224,416,336,416z"/>
<g>
</g>
<g>
</g>
<g>
</g>
<g>
</g>
<g>
</g>
<g>
</g>
<g>
</g>
<g>
</g>
<g>
</g>
<g>
</g>
<g>
</g>
<g>
</g>
<g>
</g>
<g>
</g>
<g>
</g>
</svg>
