<?xml version="1.0" encoding="iso-8859-1"?>
<!-- Generator: Adobe Illustrator 19.0.0, SVG Export Plug-In . SVG Version: 6.00 Build 0)  -->
<svg version="1.1" id="Capa_1" xmlns="http://www.w3.org/2000/svg" xmlns:xlink="http://www.w3.org/1999/xlink" x="0px" y="0px"
	 viewBox="0 0 512 512" style="enable-background:new 0 0 512 512;" xml:space="preserve">
<path style="fill:#F06292;" d="M256,0C229.76,0,0,1.92,0,64h33.92C49.6,51.84,124.48,32,256,32s206.4,19.84,222.08,32H512
	C512,1.92,282.24,0,256,0z"/>
<circle style="fill:#FFCA28;" cx="256" cy="256" r="256"/>
<g>
	<circle style="fill:#6D4C41;" cx="160" cy="192" r="32"/>
	<circle style="fill:#6D4C41;" cx="352" cy="192" r="32"/>
	<path style="fill:#6D4C41;" d="M256,416c-42.752,0-82.912-16.672-113.152-46.88c-6.24-6.24-6.24-16.384,0-22.624
		s16.384-6.24,22.624,0c48.352,48.384,132.64,48.384,181.024,0c6.24-6.24,16.384-6.24,22.624,0s6.24,16.384,0,22.624
		C338.912,399.328,298.752,416,256,416z"/>
</g>
<path style="fill:#F06292;" d="M512,64c0,62.08-229.76,64-256,64S0,126.08,0,64h33.92C49.6,76.16,124.48,96,256,96
	s206.4-19.84,222.08-32H512z"/>
<g>
</g>
<g>
</g>
<g>
</g>
<g>
</g>
<g>
</g>
<g>
</g>
<g>
</g>
<g>
</g>
<g>
</g>
<g>
</g>
<g>
</g>
<g>
</g>
<g>
</g>
<g>
</g>
<g>
</g>
</svg>
