<?xml version="1.0" encoding="iso-8859-1"?>
<!-- Generator: Adobe Illustrator 19.0.0, SVG Export Plug-In . SVG Version: 6.00 Build 0)  -->
<svg version="1.1" id="Capa_1" xmlns="http://www.w3.org/2000/svg" xmlns:xlink="http://www.w3.org/1999/xlink" x="0px" y="0px"
	 viewBox="0 0 512 512" style="enable-background:new 0 0 512 512;" xml:space="preserve">
<path style="fill:#CAE8F9;" d="M467,16H45C20.098,16,0,36.099,0,61v300c0,24.899,20.098,45,45,45h46v75c0,6,3.6,11.4,9.302,13.799
	C102.1,495.7,104.198,496,106,496c3.9,0,7.8-1.5,10.499-4.501l85.8-85.499H467c24.902,0,45-20.101,45-45V61
	C512,36.099,491.902,16,467,16z"/>
<path style="fill:#B7E0F6;" d="M512,61v300c0,24.899-20.098,45-45,45H256V16h211C491.902,16,512,36.099,512,61z"/>
<path style="fill:#FD3C65;" d="M256,76c-74.399,0-135,60.599-135,135c0,74.399,60.601,135,135,135s135-60.601,135-135
	C391,136.599,330.399,76,256,76z"/>
<path style="fill:#FD003A;" d="M391,211c0,74.399-60.601,135-135,135V76C330.399,76,391,136.599,391,211z"/>
<g>
	<path style="fill:#57555C;" d="M309.101,266.499c-3.003,3.001-6.899,4.501-10.803,4.501c-3.596,0-7.5-1.5-10.496-4.501
		c-8.701-8.699-20.402-12.9-31.802-12.9s-23.101,4.2-31.802,12.9c-5.999,6-15.3,6-21.299,0c-5.698-5.7-5.698-15.3,0-21
		c14.7-14.7,33.9-21.899,53.101-21.899s38.401,7.2,53.101,21.899C314.799,251.199,314.799,260.799,309.101,266.499z"/>
	<circle style="fill:#57555C;" cx="211" cy="181" r="15"/>
</g>
<g>
	<circle style="fill:#3C3A41;" cx="301" cy="181" r="15"/>
	<path style="fill:#3C3A41;" d="M309.101,266.499c-3.003,3.001-6.899,4.501-10.803,4.501c-3.596,0-7.5-1.5-10.496-4.501
		c-8.701-8.699-20.402-12.9-31.802-12.9v-30c19.2,0,38.401,7.2,53.101,21.899C314.799,251.199,314.799,260.799,309.101,266.499z"/>
</g>
<g>
</g>
<g>
</g>
<g>
</g>
<g>
</g>
<g>
</g>
<g>
</g>
<g>
</g>
<g>
</g>
<g>
</g>
<g>
</g>
<g>
</g>
<g>
</g>
<g>
</g>
<g>
</g>
<g>
</g>
</svg>
