<?xml version="1.0" encoding="iso-8859-1"?>
<!-- Generator: Adobe Illustrator 19.0.0, SVG Export Plug-In . SVG Version: 6.00 Build 0)  -->
<svg version="1.1" id="Capa_1" xmlns="http://www.w3.org/2000/svg" xmlns:xlink="http://www.w3.org/1999/xlink" x="0px" y="0px"
	 viewBox="0 0 512 512" style="enable-background:new 0 0 512 512;" xml:space="preserve">
<path style="fill:#FEC478;" d="M512,211.224v172.218c0,7.501-2.703,15.002-8.102,20.402c-19.499,20.101-39.804,31.503-66.204,44.104
	c-26.107,12.602-59.409,26.403-109.816,51.005c-15.002,6.9-32.999,0.601-39.903-14.4c-6.9-15.002-0.597-33.004,14.705-39.905
	l-27.308,12.6c-15.002,6.902-32.999,0.601-39.903-14.4c-6.9-15.002-0.597-33.002,14.404-39.905l-27.007,12.602
	c-15.002,6.9-32.999,0.599-39.903-14.402c-7.201-15.002-0.597-33.002,14.404-39.903c-15.002,6.9-32.706,0.599-39.906-14.402
	c-6.9-15.302-0.3-33.002,14.702-39.903l55.807-26.03l6.181-7.702c7.77-9.681,20.582-13.768,32.523-10.374l0,0l-17.1-45.305
	c11.698-30.602,45.902-46.505,76.806-35.103l63.307,23.103c29.102,11.7,70.108,4.199,102.214-7.801
	C501.5,194.122,512,201.022,512,211.224z"/>
<path style="fill:#FEB756;" d="M437.695,447.948c-26.107,12.602-59.409,26.403-109.816,51.005c-15.002,6.9-32.999,0.601-39.903-14.4
	c-6.9-15.002-0.597-33.004,14.705-39.905l-27.308,12.6c-15.002,6.902-32.999,0.601-39.903-14.4
	c-6.9-15.002-0.597-33.002,14.404-39.905l-27.007,12.602c-15.002,6.9-32.999,0.599-39.903-14.402
	c-7.201-15.002-0.597-33.002,14.404-39.903c-15.002,6.9-32.706,0.599-39.906-14.402c-6.9-15.302-0.3-33.002,14.702-39.903
	l84.911-39.604L437.695,447.948z"/>
<path style="fill:#787780;" d="M243.263,211.092c20.12,20.12,42.643,42.643,42.643,42.643c-9.66,4.504-19.319,9.008-19.319,9.008
	s-18.154,8.465-38.55,17.975l-58.117-58.117l42.426-42.426C212.347,180.177,227.021,194.851,243.263,211.092z"/>
<path style="fill:#57555C;" d="M228.04,280.72c11.405-5.32,21.711-10.125,28.934-13.492l-65.837-65.839l-21.213,21.213
	C169.924,222.601,228.04,280.718,228.04,280.72z"/>
<path style="fill:#FD3C65;" d="M204.821,215.077c-46.803,46.803-122.932,46.792-169.724,0s-46.802-122.921,0-169.724
	s122.931-46.792,169.724,0S251.623,168.275,204.821,215.077z"/>
<path style="fill:#FD003A;" d="M35.1,215.077c46.792,46.792,122.921,46.801,169.72,0L35.1,45.354
	C-11.707,92.155-11.692,168.286,35.1,215.077z"/>
<path style="fill:#CAE8F9;" d="M160.57,89.605c-5.86-5.86-15.354-5.86-21.213,0l-19.397,19.397l-19.397-19.397
	c-5.86-5.86-15.354-5.86-21.213,0c-5.86,5.86-5.86,15.354,0,21.213l19.397,19.397l-19.397,19.397c-5.86,5.86-5.86,15.354,0,21.213
	c2.93,2.93,6.769,4.395,10.606,4.395s7.677-1.465,10.606-4.395l19.397-19.397l19.397,19.397c2.93,2.93,6.769,4.395,10.606,4.395
	s7.677-1.465,10.606-4.395c5.86-5.86,5.86-15.354,0-21.213l-19.397-19.397l19.397-19.397
	C166.429,104.959,166.429,95.466,160.57,89.605z"/>
<path style="fill:#B7E0F6;" d="M139.356,170.825c2.93,2.93,6.769,4.395,10.606,4.395s7.677-1.465,10.606-4.395L79.35,89.605l0,0
	c-5.86,5.86-5.86,15.354,0,21.213l19.397,19.397L79.35,149.613c-5.86,5.86-5.86,15.354,0,21.213c2.93,2.93,6.769,4.395,10.606,4.395
	s7.677-1.465,10.606-4.395l19.397-19.397L139.356,170.825z"/>
<g>
</g>
<g>
</g>
<g>
</g>
<g>
</g>
<g>
</g>
<g>
</g>
<g>
</g>
<g>
</g>
<g>
</g>
<g>
</g>
<g>
</g>
<g>
</g>
<g>
</g>
<g>
</g>
<g>
</g>
</svg>
