<?xml version="1.0" encoding="iso-8859-1"?>
<!-- Generator: Adobe Illustrator 19.0.0, SVG Export Plug-In . SVG Version: 6.00 Build 0)  -->
<svg version="1.1" id="Capa_1" xmlns="http://www.w3.org/2000/svg" xmlns:xlink="http://www.w3.org/1999/xlink" x="0px" y="0px"
	 viewBox="0 0 512 512" style="enable-background:new 0 0 512 512;" xml:space="preserve">
<path style="fill:#CAE8F9;" d="M467,15.994H45c-24.902,0-45,20.099-45,45v300c0,24.899,20.098,45,45,45h46v75
	c0,6,3.6,11.4,9.302,13.799c5.398,2.401,11.997,1.201,16.198-3.3l85.8-85.499H467c24.902,0,45-20.101,45-45v-300
	C512,36.093,491.902,15.994,467,15.994z"/>
<path style="fill:#B7E0F6;" d="M512,60.994v300c0,24.899-20.098,45-45,45H256v-390h211C491.902,15.994,512,36.093,512,60.994z"/>
<path style="fill:#FEDB41;" d="M256,75.994c-74.399,0-135,60.599-135,135c0,74.399,60.601,135,135,135s135-60.601,135-135
	C391,136.592,330.399,75.994,256,75.994z"/>
<path style="fill:#FCBF29;" d="M391,210.994c0,74.399-60.601,135-135,135v-270C330.399,75.994,391,136.592,391,210.994z"/>
<g>
	<path style="fill:#57555C;" d="M309.101,264.092c-14.7,14.401-33.9,21.901-53.101,21.901s-38.401-7.5-53.101-21.901
		c-5.698-5.999-5.698-15.298,0-21.299c5.999-5.7,15.3-5.7,21.299,0c8.701,9,20.402,13.2,31.802,13.2s23.101-4.2,31.802-13.2
		c5.999-5.7,15.3-5.7,21.299,0C314.799,248.794,314.799,258.094,309.101,264.092z"/>
	<circle style="fill:#57555C;" cx="211" cy="180.999" r="15"/>
</g>
<g>
	<circle style="fill:#3C3A41;" cx="301" cy="180.999" r="15"/>
	<path style="fill:#3C3A41;" d="M309.101,264.092c-14.7,14.401-33.9,21.901-53.101,21.901v-30c11.4,0,23.101-4.2,31.802-13.2
		c5.999-5.7,15.3-5.7,21.299,0C314.799,248.794,314.799,258.094,309.101,264.092z"/>
</g>
<g>
</g>
<g>
</g>
<g>
</g>
<g>
</g>
<g>
</g>
<g>
</g>
<g>
</g>
<g>
</g>
<g>
</g>
<g>
</g>
<g>
</g>
<g>
</g>
<g>
</g>
<g>
</g>
<g>
</g>
</svg>
