<?xml version="1.0" encoding="iso-8859-1"?>
<!-- Generator: Adobe Illustrator 19.0.0, SVG Export Plug-In . SVG Version: 6.00 Build 0)  -->
<svg version="1.1" id="Capa_1" xmlns="http://www.w3.org/2000/svg" xmlns:xlink="http://www.w3.org/1999/xlink" x="0px" y="0px"
	 viewBox="0 0 512 512" style="enable-background:new 0 0 512 512;" xml:space="preserve">
<path style="fill:#CAE8F9;" d="M467,15.994H45c-24.902,0-45,20.099-45,45v300c0,24.899,20.098,45,45,45h46v75
	c0,6,3.6,11.4,9.302,13.799c5.398,2.401,11.997,1.201,16.198-3.3l85.8-85.499H467c24.902,0,45-20.101,45-45v-300
	C512,36.093,491.902,15.994,467,15.994z"/>
<path style="fill:#B7E0F6;" d="M512,60.994v300c0,24.899-20.098,45-45,45H256v-390h211C491.902,15.994,512,36.093,512,60.994z"/>
<path style="fill:#FD3C65;" d="M308.5,107.193c-25.499,0-42.297,13.5-52.5,27.301c-10.203-13.801-27.001-27.301-52.5-27.301
	c-37.8,0-67.5,31.199-67.5,71.1c0,42.9,32.999,70.501,83.101,112.5c8.701,6.901,17.699,14.401,26.997,22.8
	c3.003,2.401,6.302,3.6,9.902,3.6s6.899-1.199,9.902-3.6c9.298-8.399,18.596-15.899,26.997-23.101
	C343,248.793,376,221.192,376,178.292C376,138.393,346.3,107.193,308.5,107.193z"/>
<path style="fill:#FD003A;" d="M376,178.294c0,42.9-32.999,70.501-83.101,112.2c-8.401,7.202-17.699,14.702-26.997,23.101
	c-3.003,2.401-6.302,3.6-9.902,3.6v-182.7c10.203-13.801,27.001-27.301,52.5-27.301C346.3,107.193,376,138.393,376,178.294z"/>
<g>
</g>
<g>
</g>
<g>
</g>
<g>
</g>
<g>
</g>
<g>
</g>
<g>
</g>
<g>
</g>
<g>
</g>
<g>
</g>
<g>
</g>
<g>
</g>
<g>
</g>
<g>
</g>
<g>
</g>
</svg>
