<?xml version="1.0" encoding="iso-8859-1"?>
<!-- Generator: Adobe Illustrator 19.0.0, SVG Export Plug-In . SVG Version: 6.00 Build 0)  -->
<svg version="1.1" id="Capa_1" xmlns="http://www.w3.org/2000/svg" xmlns:xlink="http://www.w3.org/1999/xlink" x="0px" y="0px"
	 viewBox="0 0 511.999 511.999" style="enable-background:new 0 0 511.999 511.999;" xml:space="preserve">
<path style="fill:#81C8EE;" d="M175.498,500.478c-2.699,3.001-6.599,4.501-10.499,4.501s-7.8-1.5-10.499-4.501l-19.501-19.199
	l-19.501,19.199c-5.7,6-15.298,6-20.999,0c-6-5.7-6-15.298,0-20.999l25.5-25.801v-53.699c0-8.401,6.599-15,15-15s15,6.599,15,15
	v53.699l25.499,25.801C181.499,485.18,181.499,494.778,175.498,500.478z"/>
<path style="fill:#159CE4;" d="M175.498,479.479c6,5.7,6,15.298,0,20.999c-2.699,3.001-6.599,4.501-10.499,4.501
	s-7.8-1.5-10.499-4.501l-19.501-19.199v-96.301c8.401,0,15,6.599,15,15v53.699L175.498,479.479z"/>
<path style="fill:#81C8EE;" d="M175.498,260.478l-25.499,25.801v53.699c0,8.401-6.599,15-15,15s-15-6.599-15-15v-53.699
	L94.5,260.478c-6-5.7-6-15.298,0-20.999c5.7-6,15.298-6,20.999,0l19.5,19.199l19.501-19.199c5.7-6,15.298-6,20.999,0
	C181.499,245.18,181.499,254.778,175.498,260.478z"/>
<g>
	<path style="fill:#159CE4;" d="M134.999,354.979v-96.301l19.501-19.199c5.7-6,15.298-6,20.999,0c6,5.7,6,15.298,0,20.999
		l-25.5,25.801v53.699C149.999,348.38,143.4,354.979,134.999,354.979z"/>
	<path style="fill:#159CE4;" d="M246.21,369.979l19.395-19.395c5.859-5.859,5.859-15.352,0-21.211s-15.352-5.859-21.211,0
		l-25.605,25.605h-53.79c-8.291,0-15,6.709-15,15s6.709,15,15,15h53.789l25.605,25.605c2.93,2.93,6.768,4.395,10.605,4.395
		s7.676-1.465,10.605-4.395c5.859-5.859,5.859-15.352,0-21.211L246.21,369.979z"/>
</g>
<path style="fill:#81C8EE;" d="M104.999,354.979H51.21l-25.605-25.605c-5.859-5.859-15.352-5.859-21.211,0s-5.859,15.352,0,21.211
	l19.395,19.395L4.394,389.373c-5.859,5.859-5.859,15.352,0,21.211c2.93,2.93,6.768,4.395,10.605,4.395s7.676-1.465,10.605-4.395
	l25.605-25.605h53.79c8.291,0,15-6.709,15-15S113.29,354.979,104.999,354.979z"/>
<path style="fill:#159CE4;" d="M242.436,289.979h-27.437v-27.437c0-8.291-6.709-15-15-15s-15,6.709-15,15v36.226l-39.395,39.395
	c-2.93,2.93-4.395,6.768-4.395,10.605s1.465,7.676,4.395,10.605s6.768,4.395,10.605,4.395s7.676-1.465,10.605-4.395l39.395-39.395
	h36.226c8.291,0,15-6.709,15-15S250.727,289.979,242.436,289.979z"/>
<g>
	<path style="fill:#81C8EE;" d="M124.394,380.584c-5.859-5.859-15.352-5.859-21.211,0l-39.395,39.395H27.562
		c-8.291,0-15,6.709-15,15s6.709,15,15,15h27.437v27.437c0,8.291,6.709,15,15,15s15-6.709,15-15V441.19l39.395-39.395
		C130.253,395.936,130.253,386.444,124.394,380.584z"/>
	<path style="fill:#81C8EE;" d="M124.394,338.162l-39.395-39.394v-36.226c0-8.291-6.709-15-15-15s-15,6.709-15,15v27.437H27.562
		c-8.291,0-15,6.709-15,15s6.709,15,15,15h36.226l39.395,39.395c2.93,2.93,6.768,4.395,10.605,4.395s7.676-1.465,10.605-4.395
		s4.395-6.768,4.395-10.605S127.323,341.092,124.394,338.162z"/>
</g>
<g>
	<path style="fill:#159CE4;" d="M242.436,419.979H206.21l-39.395-39.395c-5.859-5.859-15.352-5.859-21.211,0s-5.859,15.352,0,21.211
		l39.395,39.395v36.226c0,8.291,6.709,15,15,15s15-6.709,15-15v-27.437h27.437c8.291,0,15-6.709,15-15
		S250.727,419.979,242.436,419.979z"/>
	<path style="fill:#159CE4;" d="M224.999,114.979h-60c-8.291,0-15-6.709-15-15s6.709-15,15-15h60c8.291,0,15,6.709,15,15
		S233.29,114.979,224.999,114.979z"/>
	<path style="fill:#159CE4;" d="M180.014,192.923c-5.186,0-10.225-2.681-13.008-7.5l-30-51.958
		c-4.146-7.178-1.685-16.348,5.493-20.493c7.148-4.16,16.318-1.699,20.493,5.493l30,51.958c4.146,7.178,1.685,16.348-5.493,20.493
		C185.141,192.279,182.562,192.923,180.014,192.923z"/>
</g>
<path style="fill:#81C8EE;" d="M120.014,88.992c-5.186,0-10.225-2.681-13.008-7.5l-30-51.958
	c-4.146-7.178-1.685-16.348,5.493-20.493c7.134-4.146,16.318-1.714,20.493,5.493l30,51.958c4.146,7.178,1.685,16.348-5.493,20.493
	C125.141,88.348,122.562,88.992,120.014,88.992z"/>
<path style="fill:#159CE4;" d="M149.984,88.992c-2.549,0-5.127-0.645-7.485-2.007c-7.178-4.146-9.639-13.315-5.493-20.493l30-51.958
	c4.131-7.207,13.301-9.639,20.493-5.493c7.178,4.146,9.639,13.315,5.493,20.493l-30,51.958
	C160.209,86.312,155.17,88.992,149.984,88.992z"/>
<g>
	<path style="fill:#81C8EE;" d="M104.999,114.979h-60c-8.291,0-15-6.709-15-15s6.709-15,15-15h60c8.291,0,15,6.709,15,15
		S113.29,114.979,104.999,114.979z"/>
	<path style="fill:#81C8EE;" d="M89.984,192.923c-2.549,0-5.127-0.645-7.485-2.007c-7.178-4.146-9.639-13.315-5.493-20.493
		l30-51.958c4.131-7.192,13.301-9.653,20.493-5.493c7.178,4.146,9.639,13.315,5.493,20.493l-30,51.958
		C100.209,190.242,95.17,192.923,89.984,192.923z"/>
</g>
<g>
	<circle style="fill:#A4D9F5;" cx="496.999" cy="309.98" r="15"/>
	<circle style="fill:#A4D9F5;" cx="284.999" cy="39.979" r="15"/>
</g>
<g>
	<path style="fill:#B7E0F6;" d="M419.999,399.979c0,8.401-6.599,15-15,15h-15v15c0,8.401-6.599,15-15,15s-15-6.599-15-15v-15h-15
		c-8.401,0-15-6.599-15-15s6.599-15,15-15h15v-15c0-8.401,6.599-15,15-15s15,6.599,15,15v15h15
		C413.4,384.979,419.999,391.578,419.999,399.979z"/>
	<path style="fill:#B7E0F6;" d="M134.999,324.979c-24.901,0-45,20.099-45,45s20.099,45,45,45s45-20.099,45-45
		S159.9,324.979,134.999,324.979z"/>
</g>
<path style="fill:#A4D9F5;" d="M179.999,369.979c0,24.901-20.099,45-45,45v-90C159.9,324.979,179.999,345.078,179.999,369.979z"/>
<path style="fill:#B7E0F6;" d="M134.999,54.979c-24.901,0-45,20.099-45,45s20.099,45,45,45s45-20.099,45-45
	S159.9,54.979,134.999,54.979z"/>
<path style="fill:#A4D9F5;" d="M179.999,99.979c0,24.901-20.099,45-45,45v-90C159.9,54.979,179.999,75.078,179.999,99.979z"/>
<g>
	<path style="fill:#159CE4;" d="M466.999,204.979h-62c-8.291,0-15-6.709-15-15s6.709-15,15-15h62c8.291,0,15,6.709,15,15
		S475.29,204.979,466.999,204.979z"/>
	<path style="fill:#159CE4;" d="M420.014,282.923c-5.186,0-10.225-2.681-13.008-7.5l-30-51.958
		c-4.146-7.178-1.685-16.348,5.493-20.493c7.148-4.16,16.318-1.699,20.493,5.493l30,51.958c4.146,7.178,1.685,16.348-5.493,20.493
		C425.141,282.279,422.562,282.923,420.014,282.923z"/>
</g>
<path style="fill:#81C8EE;" d="M360.014,178.992c-5.186,0-10.225-2.681-13.008-7.5l-30-51.958
	c-4.146-7.178-1.685-16.348,5.493-20.493c7.134-4.146,16.318-1.714,20.493,5.493l30,51.958c4.146,7.178,1.685,16.348-5.493,20.493
	C365.141,178.348,362.562,178.992,360.014,178.992z"/>
<path style="fill:#159CE4;" d="M389.984,178.992c-2.549,0-5.127-0.645-7.485-2.007c-7.178-4.146-9.639-13.315-5.493-20.493
	l30-51.958c4.131-7.207,13.301-9.639,20.493-5.493c7.178,4.146,9.639,13.315,5.493,20.493l-30,51.958
	C400.209,176.312,395.17,178.992,389.984,178.992z"/>
<g>
	<path style="fill:#81C8EE;" d="M344.999,204.979h-60c-8.291,0-15-6.709-15-15s6.709-15,15-15h60c8.291,0,15,6.709,15,15
		S353.29,204.979,344.999,204.979z"/>
	<path style="fill:#81C8EE;" d="M329.984,282.923c-2.549,0-5.127-0.645-7.485-2.007c-7.178-4.146-9.639-13.315-5.493-20.493
		l30-51.958c4.131-7.192,13.301-9.653,20.493-5.493c7.178,4.146,9.639,13.315,5.493,20.493l-30,51.958
		C340.209,280.242,335.17,282.923,329.984,282.923z"/>
</g>
<path style="fill:#B7E0F6;" d="M374.999,144.979c-24.901,0-45,20.099-45,45s20.099,45,45,45s45-20.099,45-45
	S399.9,144.979,374.999,144.979z"/>
<g>
	<path style="fill:#A4D9F5;" d="M419.999,189.979c0,24.901-20.099,45-45,45v-90C399.9,144.979,419.999,165.078,419.999,189.979z"/>
	<path style="fill:#A4D9F5;" d="M419.999,399.979c0,8.401-6.599,15-15,15h-15v15c0,8.401-6.599,15-15,15v-90c8.401,0,15,6.599,15,15
		v15h15C413.4,384.979,419.999,391.578,419.999,399.979z"/>
</g>
<g>
</g>
<g>
</g>
<g>
</g>
<g>
</g>
<g>
</g>
<g>
</g>
<g>
</g>
<g>
</g>
<g>
</g>
<g>
</g>
<g>
</g>
<g>
</g>
<g>
</g>
<g>
</g>
<g>
</g>
</svg>
