<?xml version="1.0" encoding="iso-8859-1"?>
<!-- Generator: Adobe Illustrator 19.0.0, SVG Export Plug-In . SVG Version: 6.00 Build 0)  -->
<svg version="1.1" id="Capa_1" xmlns="http://www.w3.org/2000/svg" xmlns:xlink="http://www.w3.org/1999/xlink" x="0px" y="0px"
	 viewBox="0 0 512 512" style="enable-background:new 0 0 512 512;" xml:space="preserve">
<circle style="fill:#FFCA28;" cx="256" cy="256" r="256"/>
<g>
	<circle style="fill:#6D4C41;" cx="160" cy="192" r="32"/>
	<circle style="fill:#6D4C41;" cx="352" cy="192" r="32"/>
	<path style="fill:#6D4C41;" d="M336,384H176c-8.832,0-16-7.168-16-16s7.168-16,16-16h160c8.832,0,16,7.168,16,16
		S344.832,384,336,384z"/>
	<path style="fill:#6D4C41;" d="M208,416c-8.832,0-16-7.168-16-16v-64c0-8.832,7.168-16,16-16s16,7.168,16,16v64
		C224,408.832,216.832,416,208,416z"/>
	<path style="fill:#6D4C41;" d="M256,416c-8.832,0-16-7.168-16-16v-64c0-8.832,7.168-16,16-16s16,7.168,16,16v64
		C272,408.832,264.832,416,256,416z"/>
	<path style="fill:#6D4C41;" d="M304,416c-8.832,0-16-7.168-16-16v-64c0-8.832,7.168-16,16-16s16,7.168,16,16v64
		C320,408.832,312.832,416,304,416z"/>
	<path style="fill:#6D4C41;" d="M417.952,382.048c-14.24-14.24-59.616-25.504-78.464-29.696c-5.312-1.184-10.912,0.448-14.784,4.32
		s-5.504,9.44-4.32,14.784c4.192,18.848,15.424,64.224,29.696,78.464c9.344,9.344,21.664,14.016,33.952,14.016
		s24.608-4.672,33.952-14.016C436.672,431.232,436.672,400.768,417.952,382.048z"/>
</g>
<g>
</g>
<g>
</g>
<g>
</g>
<g>
</g>
<g>
</g>
<g>
</g>
<g>
</g>
<g>
</g>
<g>
</g>
<g>
</g>
<g>
</g>
<g>
</g>
<g>
</g>
<g>
</g>
<g>
</g>
</svg>
