<?xml version="1.0" encoding="iso-8859-1"?>
<!-- Generator: Adobe Illustrator 19.0.0, SVG Export Plug-In . SVG Version: 6.00 Build 0)  -->
<svg version="1.1" id="Capa_1" xmlns="http://www.w3.org/2000/svg" xmlns:xlink="http://www.w3.org/1999/xlink" x="0px" y="0px"
	 viewBox="0 0 512.288 512.288" style="enable-background:new 0 0 512.288 512.288;" xml:space="preserve">
<circle style="fill:#FFCA28;" cx="256.144" cy="256" r="256"/>
<g>
	<path style="fill:#6D4C41;" d="M368.112,255.744c-3.328,0-6.688-1.024-9.568-3.168l-64.128-47.872
		c-4.032-3.008-6.432-7.744-6.432-12.8c0-5.024,2.336-9.792,6.368-12.8l63.904-48.128c7.008-5.312,17.024-3.936,22.4,3.168
		c5.312,7.072,3.904,17.088-3.168,22.4l-46.88,35.296l47.04,35.104c7.104,5.312,8.544,15.328,3.264,22.4
		C377.808,253.536,372.976,255.744,368.112,255.744z"/>
	<path style="fill:#6D4C41;" d="M144.144,256.256c-4.864,0-9.664-2.208-12.8-6.368c-5.312-7.04-3.904-17.088,3.168-22.4
		l46.848-35.296l-47.04-35.104c-7.072-5.312-8.544-15.328-3.264-22.4c5.28-7.04,15.328-8.544,22.4-3.264l64.096,47.872
		c4.032,3.008,6.4,7.744,6.432,12.8c0,5.024-2.336,9.792-6.368,12.8l-63.872,48.128C150.864,255.2,147.472,256.256,144.144,256.256z
		"/>
	<path style="fill:#6D4C41;" d="M176.304,352.192c-8.832,0-16-7.136-16-15.968s7.136-16,15.968-16.032l160-0.384h0.032
		c8.8,0,15.968,7.136,16,15.968s-7.136,16-15.968,16.032L176.304,352.192C176.336,352.192,176.336,352.192,176.304,352.192z"/>
</g>
<path style="fill:#4CAF50;" d="M384.656,487.712c-0.032-30.048-14.432-58.752-38.56-76.704c-16.064-12-25.664-31.104-25.728-51.136
	l-0.032-24c0-4.256-1.696-8.32-4.704-11.328c-3.008-2.944-7.072-4.64-11.296-4.64h-0.032l-96,0.192
	c-4.256,0-8.32,1.728-11.328,4.704c-2.976,3.008-4.672,7.072-4.672,11.328l0.064,24c0.032,20.064-9.472,39.232-25.472,51.296
	c-24,18.08-38.304,46.848-38.24,76.864v8c0,4.256,1.696,8.32,4.704,11.328c3.008,2.976,7.072,4.672,11.296,4.672h0.032l224-0.512
	c4.256,0,8.32-1.728,11.328-4.704s4.672-7.104,4.672-11.328L384.656,487.712z"/>
<g>
</g>
<g>
</g>
<g>
</g>
<g>
</g>
<g>
</g>
<g>
</g>
<g>
</g>
<g>
</g>
<g>
</g>
<g>
</g>
<g>
</g>
<g>
</g>
<g>
</g>
<g>
</g>
<g>
</g>
</svg>
