<?xml version="1.0" encoding="iso-8859-1"?>
<!-- Generator: Adobe Illustrator 19.0.0, SVG Export Plug-In . SVG Version: 6.00 Build 0)  -->
<svg version="1.1" id="Capa_1" xmlns="http://www.w3.org/2000/svg" xmlns:xlink="http://www.w3.org/1999/xlink" x="0px" y="0px"
	 viewBox="0 0 512 512" style="enable-background:new 0 0 512 512;" xml:space="preserve">
<circle style="fill:#FFCA28;" cx="256" cy="256" r="256"/>
<path style="fill:#6D4C41;" d="M304,416h-96c-8.832,0-16-7.168-16-16s7.168-16,16-16h96c8.832,0,16,7.168,16,16S312.832,416,304,416
	z"/>
<g>
	<path style="fill:#2196F3;" d="M208,96h-64c-8.832,0-16-7.168-16-16V16c0-8.832,7.168-16,16-16s16,7.168,16,16v48h48
		c8.832,0,16,7.168,16,16S216.832,96,208,96z"/>
	<path style="fill:#2196F3;" d="M144,224c-8.832,0-16-7.168-16-16v-64c0-8.832,7.168-16,16-16h64c8.832,0,16,7.168,16,16
		s-7.168,16-16,16h-48v48C160,216.832,152.832,224,144,224z"/>
	<path style="fill:#2196F3;" d="M80,96H16C7.168,96,0,88.832,0,80s7.168-16,16-16h48V16c0-8.832,7.168-16,16-16s16,7.168,16,16v64
		C96,88.832,88.832,96,80,96z"/>
	<path style="fill:#2196F3;" d="M80,224c-8.832,0-16-7.168-16-16v-48H16c-8.832,0-16-7.168-16-16s7.168-16,16-16h64
		c8.832,0,16,7.168,16,16v64C96,216.832,88.832,224,80,224z"/>
</g>
<g>
	<path style="fill:#6D4C41;" d="M192,288h-64c-8.832,0-16-7.168-16-16s7.168-16,16-16h64c8.832,0,16,7.168,16,16
		S200.832,288,192,288z"/>
	<path style="fill:#6D4C41;" d="M384,288h-64c-8.832,0-16-7.168-16-16s7.168-16,16-16h64c8.832,0,16,7.168,16,16
		S392.832,288,384,288z"/>
</g>
<g>
</g>
<g>
</g>
<g>
</g>
<g>
</g>
<g>
</g>
<g>
</g>
<g>
</g>
<g>
</g>
<g>
</g>
<g>
</g>
<g>
</g>
<g>
</g>
<g>
</g>
<g>
</g>
<g>
</g>
</svg>
