<?xml version="1.0" encoding="iso-8859-1"?>
<!-- Generator: Adobe Illustrator 19.0.0, SVG Export Plug-In . SVG Version: 6.00 Build 0)  -->
<svg version="1.1" id="Capa_1" xmlns="http://www.w3.org/2000/svg" xmlns:xlink="http://www.w3.org/1999/xlink" x="0px" y="0px"
	 viewBox="0 0 512 512" style="enable-background:new 0 0 512 512;" xml:space="preserve">
<circle style="fill:#FFCA28;" cx="256" cy="256" r="256"/>
<g>
	<path style="fill:#6D4C41;" d="M352,256c-35.296,0-64-28.704-64-64c0-8.832,7.168-16,16-16s16,7.168,16,16
		c0,17.632,14.336,32,32,32s32-14.368,32-32c0-8.832,7.168-16,16-16s16,7.168,16,16C416,227.296,387.296,256,352,256z"/>
	<path style="fill:#6D4C41;" d="M160,256c-35.296,0-64-28.704-64-64c0-8.832,7.168-16,16-16s16,7.168,16,16
		c0,17.632,14.368,32,32,32s32-14.368,32-32c0-8.832,7.168-16,16-16s16,7.168,16,16C224,227.296,195.296,256,160,256z"/>
	<path style="fill:#6D4C41;" d="M336,384H176c-8.832,0-16-7.168-16-16s7.168-16,16-16h160c8.832,0,16,7.168,16,16
		S344.832,384,336,384z"/>
</g>
<g>
</g>
<g>
</g>
<g>
</g>
<g>
</g>
<g>
</g>
<g>
</g>
<g>
</g>
<g>
</g>
<g>
</g>
<g>
</g>
<g>
</g>
<g>
</g>
<g>
</g>
<g>
</g>
<g>
</g>
</svg>
