<?xml version="1.0" encoding="iso-8859-1"?>
<!-- Generator: Adobe Illustrator 19.0.0, SVG Export Plug-In . SVG Version: 6.00 Build 0)  -->
<svg version="1.1" id="Capa_1" xmlns="http://www.w3.org/2000/svg" xmlns:xlink="http://www.w3.org/1999/xlink" x="0px" y="0px"
	 viewBox="0 0 512 512" style="enable-background:new 0 0 512 512;" xml:space="preserve">
<circle style="fill:#FFCA28;" cx="256" cy="256" r="256"/>
<g>
	<circle style="fill:#6D4C41;" cx="160" cy="192" r="32"/>
	<circle style="fill:#6D4C41;" cx="352" cy="192" r="32"/>
</g>
<path style="fill:#F44336;" d="M502.016,80C508.384,71.584,512,61.216,512,50.016C512,22.4,489.6,0,462.016,0
	c-11.2,0-21.6,3.584-30.016,10.016C423.616,3.584,413.216,0,402.016,0C374.4,0,352,22.4,352,50.016c0,11.2,3.616,21.6,10.016,30.016
	C355.616,88.416,352,98.816,352,110.016C352,137.6,374.4,160,402.016,160c11.2,0,21.6-3.616,30.016-10.016
	c8.352,6.4,18.752,10.016,29.984,10.016C489.6,160,512,137.6,512,110.016C512,98.816,508.384,88.416,502.016,80z"/>
<path style="fill:#FAFAFA;" d="M404.704,294.752c-2.976-4.256-7.84-6.752-13.024-6.752H120.32c-5.184,0-10.048,2.496-13.056,6.752
	c-3.008,4.224-3.776,9.632-2.048,14.528C127.456,373.088,188.064,416,256,416s128.544-42.912,150.784-106.72
	C408.512,304.384,407.712,298.976,404.704,294.752z"/>
<g>
</g>
<g>
</g>
<g>
</g>
<g>
</g>
<g>
</g>
<g>
</g>
<g>
</g>
<g>
</g>
<g>
</g>
<g>
</g>
<g>
</g>
<g>
</g>
<g>
</g>
<g>
</g>
<g>
</g>
</svg>
