<?xml version="1.0" encoding="iso-8859-1"?>
<!-- Generator: Adobe Illustrator 19.0.0, SVG Export Plug-In . SVG Version: 6.00 Build 0)  -->
<svg version="1.1" id="Capa_1" xmlns="http://www.w3.org/2000/svg" xmlns:xlink="http://www.w3.org/1999/xlink" x="0px" y="0px"
	 viewBox="0 0 512.011 512.011" style="enable-background:new 0 0 512.011 512.011;" xml:space="preserve">
<circle style="fill:#FFCA28;" cx="256" cy="256.005" r="256"/>
<g>
	<path style="fill:#6D4C41;" d="M352,256.005c-35.296,0-64-28.704-64-64c0-8.832,7.168-16,16-16s16,7.168,16,16
		c0,17.632,14.336,32,32,32s32-14.368,32-32c0-8.832,7.168-16,16-16s16,7.168,16,16C416,227.301,387.296,256.005,352,256.005z"/>
	<path style="fill:#6D4C41;" d="M160,256.005c-35.296,0-64-28.704-64-64c0-8.832,7.168-16,16-16s16,7.168,16,16
		c0,17.632,14.368,32,32,32s32-14.368,32-32c0-8.832,7.168-16,16-16s16,7.168,16,16C224,227.301,195.296,256.005,160,256.005z"/>
	<path style="fill:#6D4C41;" d="M336,384.005H176c-8.832,0-16-7.168-16-16s7.168-16,16-16h160c8.832,0,16,7.168,16,16
		S344.832,384.005,336,384.005z"/>
</g>
<g>
	<path style="fill:#03A9F4;" d="M496,96.005h-32c-5.536,0-10.688-2.88-13.632-7.584c-2.912-4.704-3.168-10.624-0.672-15.552
		l20.416-40.864H464c-8.832,0-16-7.168-16-16s7.168-16,16-16h32c5.536,0,10.688,2.88,13.632,7.584
		c2.912,4.704,3.168,10.624,0.672,15.552l-20.416,40.864H496c8.832,0,16,7.168,16,16S504.832,96.005,496,96.005z"/>
	<path style="fill:#03A9F4;" d="M400,160.005h-64c-5.92,0-11.328-3.264-14.08-8.448c-2.816-5.216-2.496-11.52,0.768-16.416
		l47.392-71.136H336c-8.832,0-16-7.168-16-16s7.168-16,16-16h64c5.92,0,11.328,3.264,14.08,8.448
		c2.816,5.216,2.496,11.52-0.768,16.416l-47.392,71.136H400c8.832,0,16,7.168,16,16S408.832,160.005,400,160.005z"/>
</g>
<g>
</g>
<g>
</g>
<g>
</g>
<g>
</g>
<g>
</g>
<g>
</g>
<g>
</g>
<g>
</g>
<g>
</g>
<g>
</g>
<g>
</g>
<g>
</g>
<g>
</g>
<g>
</g>
<g>
</g>
</svg>
