<?xml version="1.0" encoding="iso-8859-1"?>
<!-- Generator: Adobe Illustrator 19.0.0, SVG Export Plug-In . SVG Version: 6.00 Build 0)  -->
<svg version="1.1" id="Capa_1" xmlns="http://www.w3.org/2000/svg" xmlns:xlink="http://www.w3.org/1999/xlink" x="0px" y="0px"
	 viewBox="0 0 511.979 511.979" style="enable-background:new 0 0 511.979 511.979;" xml:space="preserve">
<path style="fill:#CFD8DC;" d="M475.504,178.667C457.936,90.283,386.672,20.011,298.16,3.819
	c-66.688-12.256-134.304,5.312-185.504,48c-51.264,42.752-80.64,105.504-80.64,172.16c0,58.368,23.264,115.104,64,156.736v67.264
	c0,35.296,28.704,64,64,64h192c35.296,0,64-28.704,64-64v-67.232C468.016,327.691,490.224,252.683,475.504,178.667z"/>
<g>
	<path style="fill:#263238;" d="M256.016,367.979c0,17.664-14.336,32-32,32s-32-14.336-32-32s30.336-64,48-64
		S256.016,350.315,256.016,367.979z"/>
	<path style="fill:#263238;" d="M256.048,367.979c0,17.664,14.336,32,32,32s32-14.336,32-32s-30.336-64-48-64
		S256.048,350.315,256.048,367.979z"/>
	<path style="fill:#263238;" d="M183.952,161.291c-15.264-15.296-38.144-18.912-55.648-8.928
		c-19.904,11.392-32.288,32.704-32.288,55.616c0,35.296,28.704,64,64,64c22.912,0,44.224-12.384,55.616-32.32
		c9.984-17.504,6.336-40.352-8.928-55.616L183.952,161.291z"/>
	<path style="fill:#263238;" d="M380.912,152.363c-17.568-10.016-40.448-6.368-55.616,8.896l-22.784,22.784
		c-15.232,15.264-18.912,38.112-8.896,55.616c11.328,19.936,32.672,32.32,55.584,32.32c35.296,0,64-28.704,64-64
		C413.2,185.067,400.816,163.755,380.912,152.363z"/>
	<path style="fill:#263238;" d="M336.016,463.979c0-8.832-7.168-16-16-16s-16,7.168-16,16v48h32V463.979z"/>
	<path style="fill:#263238;" d="M272.016,463.979c0-8.832-7.168-16-16-16s-16,7.168-16,16v48h32V463.979z"/>
	<path style="fill:#263238;" d="M208.016,463.979c0-8.832-7.168-16-16-16s-16,7.168-16,16v48h32V463.979z"/>
</g>
<g>
</g>
<g>
</g>
<g>
</g>
<g>
</g>
<g>
</g>
<g>
</g>
<g>
</g>
<g>
</g>
<g>
</g>
<g>
</g>
<g>
</g>
<g>
</g>
<g>
</g>
<g>
</g>
<g>
</g>
</svg>
