<?xml version="1.0" encoding="iso-8859-1"?>
<!-- Generator: Adobe Illustrator 19.0.0, SVG Export Plug-In . SVG Version: 6.00 Build 0)  -->
<svg version="1.1" id="Capa_1" xmlns="http://www.w3.org/2000/svg" xmlns:xlink="http://www.w3.org/1999/xlink" x="0px" y="0px"
	 viewBox="0 0 512 512" style="enable-background:new 0 0 512 512;" xml:space="preserve">
<circle style="fill:#FFC107;" cx="256" cy="256" r="256"/>
<path style="fill:#FAFAFA;" d="M160,128c-35.296,0-64,28.704-64,64s28.704,64,64,64s64-28.704,64-64S195.296,128,160,128z"/>
<path style="fill:#5D4037;" d="M160,160c-17.664,0-32,14.336-32,32s14.336,32,32,32s32-14.336,32-32S177.664,160,160,160z"/>
<path style="fill:#FAFAFA;" d="M352,128c-35.296,0-64,28.704-64,64s28.704,64,64,64s64-28.704,64-64S387.296,128,352,128z"/>
<path style="fill:#5D4037;" d="M352,160c-17.632,0-32,14.336-32,32s14.368,32,32,32s32-14.336,32-32S369.632,160,352,160z"/>
<circle style="fill:#F44336;" cx="256" cy="368" r="80"/>
<g>
</g>
<g>
</g>
<g>
</g>
<g>
</g>
<g>
</g>
<g>
</g>
<g>
</g>
<g>
</g>
<g>
</g>
<g>
</g>
<g>
</g>
<g>
</g>
<g>
</g>
<g>
</g>
<g>
</g>
</svg>
