<?xml version="1.0" encoding="iso-8859-1"?>
<!-- Generator: Adobe Illustrator 19.0.0, SVG Export Plug-In . SVG Version: 6.00 Build 0)  -->
<svg version="1.1" id="Capa_1" xmlns="http://www.w3.org/2000/svg" xmlns:xlink="http://www.w3.org/1999/xlink" x="0px" y="0px"
	 viewBox="0 0 512.017 512.017" style="enable-background:new 0 0 512.017 512.017;" xml:space="preserve">
<path style="fill:#FFCA28;" d="M430.798,147.817c-3.04-3.808-7.648-6.048-12.544-6.048H93.774c-4.864,0-9.472,2.208-12.544,6.048
	c-32.192,40.512-49.216,88.992-49.216,140.192c0,123.488,100.48,224,224,224c123.488,0,224-100.512,224-224
	C480.014,236.809,462.99,188.361,430.798,147.817z"/>
<g>
	<path style="fill:#6D4C41;" d="M507.918,69.321c-4.96-5.504-13.024-6.848-19.488-3.36c-34.432,18.56-70.336,32.8-106.912,42.496
		C372.942,44.585,341.87,0.009,304.014,0.009c-17.92,0-34.624,9.792-48,27.616c-13.376-17.824-30.08-27.616-48-27.616
		c-38.08,0-69.344,45.056-77.856,109.568c-34.56-8.896-68.096-22.656-106.464-43.616c-6.528-3.552-14.624-2.208-19.552,3.328
		c-4.96,5.472-5.536,13.664-1.344,19.776c57.76,84.48,152.416,134.944,253.216,134.944S451.47,173.545,509.23,89.033
		C513.39,82.953,512.846,74.793,507.918,69.321z"/>
	<circle style="fill:#6D4C41;" cx="160.014" cy="272.009" r="32"/>
	<circle style="fill:#6D4C41;" cx="352.014" cy="272.009" r="32"/>
	<path style="fill:#6D4C41;" d="M336.014,432.009c-3.968,0-7.936-1.472-11.04-4.416c-38.688-36.8-99.264-36.8-137.952,0
		c-6.368,6.048-16.512,5.888-22.624-0.576c-6.08-6.4-5.856-16.544,0.576-22.624c51.072-48.576,131.008-48.576,182.048,0
		c6.4,6.08,6.656,16.224,0.576,22.624C344.462,430.345,340.238,432.009,336.014,432.009z"/>
</g>
<g>
</g>
<g>
</g>
<g>
</g>
<g>
</g>
<g>
</g>
<g>
</g>
<g>
</g>
<g>
</g>
<g>
</g>
<g>
</g>
<g>
</g>
<g>
</g>
<g>
</g>
<g>
</g>
<g>
</g>
</svg>
