<?xml version="1.0" encoding="iso-8859-1"?>
<!-- Generator: Adobe Illustrator 19.0.0, SVG Export Plug-In . SVG Version: 6.00 Build 0)  -->
<svg version="1.1" id="Capa_1" xmlns="http://www.w3.org/2000/svg" xmlns:xlink="http://www.w3.org/1999/xlink" x="0px" y="0px"
	 viewBox="0 0 512 512" style="enable-background:new 0 0 512 512;" xml:space="preserve">
<circle style="fill:#FFCA28;" cx="256" cy="256" r="256"/>
<g>
	<path style="fill:#6D4C41;" d="M208.32,112.32c0,8.832-7.168,16-16,16c-17.632,0-32,14.336-32,32s14.368,32,32,32
		c8.832,0,16,7.168,16,16s-7.168,16-16,16c-35.296,0-64-28.704-64-64s28.704-64,64-64C201.184,96.32,208.32,103.488,208.32,112.32z"
		/>
	<path style="fill:#6D4C41;" d="M208.32,304.32c0,8.832-7.168,16-16,16c-17.632,0-32,14.368-32,32s14.368,32,32,32
		c8.832,0,16,7.168,16,16s-7.168,16-16,16c-35.296,0-64-28.704-64-64s28.704-64,64-64C201.184,288.32,208.32,295.488,208.32,304.32z
		"/>
</g>
<path style="fill:#FAFAFA;" d="M294.688,74.304c-4,3.04-6.368,7.744-6.368,12.736V425.6c0,5.024,2.336,9.728,6.336,12.736
	c4,3.04,9.152,4,14.016,2.656C390.88,417.856,448.32,341.888,448.32,256.32S390.88,94.784,308.672,71.648
	C303.84,70.304,298.688,71.264,294.688,74.304z"/>
<g>
</g>
<g>
</g>
<g>
</g>
<g>
</g>
<g>
</g>
<g>
</g>
<g>
</g>
<g>
</g>
<g>
</g>
<g>
</g>
<g>
</g>
<g>
</g>
<g>
</g>
<g>
</g>
<g>
</g>
</svg>
