<?xml version="1.0" encoding="iso-8859-1"?>
<!-- Generator: Adobe Illustrator 19.0.0, SVG Export Plug-In . SVG Version: 6.00 Build 0)  -->
<svg version="1.1" id="Capa_1" xmlns="http://www.w3.org/2000/svg" xmlns:xlink="http://www.w3.org/1999/xlink" x="0px" y="0px"
	 viewBox="0 0 512 512" style="enable-background:new 0 0 512 512;" xml:space="preserve">
<g>
	<path style="fill:#FFCA28;" d="M280.992,76.992c0,0-212-18.016-248.992,107.008c40-32,151.008-50.016,240-40.992L280.992,76.992z"
		/>
	<path style="fill:#FFCA28;" d="M231.008,423.104c0,0,212,18.016,248.992-107.008c-40,32-151.008,50.016-240,40.992L231.008,423.104
		z"/>
</g>
<g>
	<path style="fill:#F44336;" d="M189.984,264c-19.424,0-38.688,6.56-53.984,17.984C120.704,270.56,101.408,264,81.984,264
		C36,264,0,298.144,0,341.728c0,60.416,106.176,130.4,127.456,143.808C130.08,487.2,133.024,488,136,488
		c2.912,0,5.824-0.768,8.416-2.368C157.472,477.568,272,405.024,272,341.728C272,298.144,235.968,264,189.984,264z"/>
	<path style="fill:#F44336;" d="M429.984,24C410.56,24,391.296,30.56,376,41.984C360.704,30.56,341.408,24,321.984,24
		C276,24,240,58.144,240,101.728c0,60.416,106.176,130.4,127.456,143.808C370.08,247.2,373.024,248,376,248
		c2.912,0,5.824-0.768,8.416-2.368C397.472,237.568,512,165.024,512,101.728C512,58.144,475.968,24,429.984,24z"/>
</g>
<g>
</g>
<g>
</g>
<g>
</g>
<g>
</g>
<g>
</g>
<g>
</g>
<g>
</g>
<g>
</g>
<g>
</g>
<g>
</g>
<g>
</g>
<g>
</g>
<g>
</g>
<g>
</g>
<g>
</g>
</svg>
