<?xml version="1.0" encoding="iso-8859-1"?>
<!-- Generator: Adobe Illustrator 19.0.0, SVG Export Plug-In . SVG Version: 6.00 Build 0)  -->
<svg version="1.1" id="Capa_1" xmlns="http://www.w3.org/2000/svg" xmlns:xlink="http://www.w3.org/1999/xlink" x="0px" y="0px"
	 viewBox="0 0 512 512" style="enable-background:new 0 0 512 512;" xml:space="preserve">
<circle style="fill:#FFCA28;" cx="256" cy="256" r="256"/>
<path style="fill:#263238;" d="M34.624,128C12.736,165.696,0,209.344,0,256h512c0-46.656-12.736-90.304-34.624-128H34.624z"/>
<g>
	<circle style="fill:#FAFAFA;" cx="160" cy="192" r="32"/>
	<circle style="fill:#FAFAFA;" cx="352" cy="192" r="32"/>
</g>
<path style="fill:#6D4C41;" d="M256,416c-8.832,0-16-7.168-16-16s7.168-16,16-16c34.4,0,66.496-13.312,90.368-37.504
	c6.208-6.24,16.32-6.336,22.624-0.128c6.272,6.176,6.336,16.32,0.128,22.624C339.232,399.328,299.04,416,256,416z"/>
<g>
</g>
<g>
</g>
<g>
</g>
<g>
</g>
<g>
</g>
<g>
</g>
<g>
</g>
<g>
</g>
<g>
</g>
<g>
</g>
<g>
</g>
<g>
</g>
<g>
</g>
<g>
</g>
<g>
</g>
</svg>
