<?xml version="1.0" encoding="iso-8859-1"?>
<!-- Generator: Adobe Illustrator 19.0.0, SVG Export Plug-In . SVG Version: 6.00 Build 0)  -->
<svg version="1.1" id="Capa_1" xmlns="http://www.w3.org/2000/svg" xmlns:xlink="http://www.w3.org/1999/xlink" x="0px" y="0px"
	 viewBox="0 0 512 512" style="enable-background:new 0 0 512 512;" xml:space="preserve">
<circle style="fill:#FFCA28;" cx="256" cy="256" r="256"/>
<path style="fill:#263238;" d="M496,224H16c-8.832,0-16-7.168-16-16s7.168-16,16-16h480c8.832,0,16,7.168,16,16S504.832,224,496,224
	z"/>
<circle style="fill:#03A9F4;" cx="352" cy="208" r="64"/>
<path style="fill:#263238;" d="M352,288c-44.128,0-80-35.904-80-80s35.872-80,80-80s80,35.904,80,80S396.128,288,352,288z M352,160
	c-26.464,0-48,21.536-48,48s21.536,48,48,48s48-21.536,48-48S378.464,160,352,160z"/>
<circle style="fill:#03A9F4;" cx="160" cy="208" r="64"/>
<path style="fill:#263238;" d="M160,288c-44.096,0-80-35.904-80-80s35.904-80,80-80s80,35.904,80,80S204.096,288,160,288z M160,160
	c-26.464,0-48,21.536-48,48s21.536,48,48,48s48-21.536,48-48S186.464,160,160,160z"/>
<path style="fill:#6D4C41;" d="M256,384c-34.176,0-66.336-13.312-90.528-37.504c-6.24-6.24-6.24-16.384,0-22.624
	s16.384-6.24,22.624,0c36.288,36.256,99.52,36.256,135.776,0c6.24-6.24,16.384-6.24,22.624,0s6.24,16.384,0,22.624
	C322.336,370.688,290.176,384,256,384z"/>
<g>
</g>
<g>
</g>
<g>
</g>
<g>
</g>
<g>
</g>
<g>
</g>
<g>
</g>
<g>
</g>
<g>
</g>
<g>
</g>
<g>
</g>
<g>
</g>
<g>
</g>
<g>
</g>
<g>
</g>
</svg>
