<?xml version="1.0" encoding="iso-8859-1"?>
<!-- Generator: Adobe Illustrator 19.0.0, SVG Export Plug-In . SVG Version: 6.00 Build 0)  -->
<svg version="1.1" id="Capa_1" xmlns="http://www.w3.org/2000/svg" xmlns:xlink="http://www.w3.org/1999/xlink" x="0px" y="0px"
	 viewBox="0 0 512 512" style="enable-background:new 0 0 512 512;" xml:space="preserve">
<path style="fill:#B0BEC5;" d="M480,480H32c-17.664,0-32-14.336-32-32V160c0-17.664,14.336-32,32-32h448c17.664,0,32,14.336,32,32
	v288C512,465.664,497.664,480,480,480z"/>
<path style="fill:#CFD8DC;" d="M0,448v-7.68l256-204.8l256,204.8V448c0,17.664-14.336,32-32,32H32C14.336,480,0,465.664,0,448z"/>
<path style="fill:#ECEFF1;" d="M0,160v7.68l256,204.8l256-204.8V160c0-17.664-14.336-32-32-32H32C14.336,128,0,142.336,0,160z"/>
<path style="fill:#F44336;" d="M309.984,32C290.56,32,271.296,38.56,256,49.984C240.704,38.56,221.408,32,201.984,32
	C156,32,120,66.144,120,109.728c0,60.448,106.176,130.4,127.456,143.808C250.08,255.168,253.024,256,256,256
	c2.912,0,5.824-0.8,8.416-2.4C277.472,245.568,392,173.056,392,109.696C392,66.144,355.968,32,309.984,32z"/>
<g>
</g>
<g>
</g>
<g>
</g>
<g>
</g>
<g>
</g>
<g>
</g>
<g>
</g>
<g>
</g>
<g>
</g>
<g>
</g>
<g>
</g>
<g>
</g>
<g>
</g>
<g>
</g>
<g>
</g>
</svg>
