<?xml version="1.0" encoding="iso-8859-1"?>
<!-- Generator: Adobe Illustrator 19.0.0, SVG Export Plug-In . SVG Version: 6.00 Build 0)  -->
<svg version="1.1" id="Capa_1" xmlns="http://www.w3.org/2000/svg" xmlns:xlink="http://www.w3.org/1999/xlink" x="0px" y="0px"
	 viewBox="0 0 512 512" style="enable-background:new 0 0 512 512;" xml:space="preserve">
<circle style="fill:#FFCA28;" cx="256" cy="256" r="256"/>
<g>
	<circle style="fill:#6D4C41;" cx="160" cy="192" r="32"/>
	<circle style="fill:#6D4C41;" cx="352" cy="192" r="32"/>
	<path style="fill:#6D4C41;" d="M240,448c-8.224,0-15.232-6.304-15.936-14.656c-0.736-8.8,5.792-16.576,14.624-17.28
		c13.248-1.12,26.912-6.688,40.736-16.608c-11.744-8.512-25.248-13.536-41.44-15.584c-8-1.024-14.016-7.872-13.984-15.968
		s6.112-14.88,14.144-15.808c19.648-2.24,34.016-7.04,43.392-14.496c-13.76-10.528-27.072-15.04-39.904-13.696
		c-8.992,0.832-16.672-5.472-17.568-14.24c-0.896-8.8,5.504-16.672,14.272-17.568c26.112-2.784,52.064,8.192,76.832,32.48
		c5.28,5.152,6.336,13.28,2.56,19.616c-6.144,10.304-14.752,18.656-25.984,25.056c8.64,5.376,16.608,11.968,23.904,19.84
		c2.912,3.104,4.48,7.264,4.32,11.52c-0.192,4.256-2.016,8.288-5.184,11.168c-23.872,21.952-48.608,34.08-73.472,36.16
		C240.864,447.968,240.416,448,240,448z"/>
</g>
<g>
</g>
<g>
</g>
<g>
</g>
<g>
</g>
<g>
</g>
<g>
</g>
<g>
</g>
<g>
</g>
<g>
</g>
<g>
</g>
<g>
</g>
<g>
</g>
<g>
</g>
<g>
</g>
<g>
</g>
</svg>
