<?xml version="1.0" encoding="iso-8859-1"?>
<!-- Generator: Adobe Illustrator 19.0.0, SVG Export Plug-In . SVG Version: 6.00 Build 0)  -->
<svg version="1.1" id="Capa_1" xmlns="http://www.w3.org/2000/svg" xmlns:xlink="http://www.w3.org/1999/xlink" x="0px" y="0px"
	 viewBox="0 0 512 512" style="enable-background:new 0 0 512 512;" xml:space="preserve">
<circle style="fill:#FFCA28;" cx="256" cy="256" r="256"/>
<g>
	<path style="fill:#6D4C41;" d="M399.68,208.32c-8.832,0-16-7.168-16-16c0-17.632-14.336-32-32-32s-32,14.368-32,32
		c0,8.832-7.168,16-16,16s-16-7.168-16-16c0-35.296,28.704-64,64-64s64,28.704,64,64C415.68,201.184,408.512,208.32,399.68,208.32z"
		/>
	<path style="fill:#6D4C41;" d="M207.68,208.32c-8.832,0-16-7.168-16-16c0-17.632-14.368-32-32-32s-32,14.368-32,32
		c0,8.832-7.168,16-16,16s-16-7.168-16-16c0-35.296,28.704-64,64-64s64,28.704,64,64C223.68,201.184,216.512,208.32,207.68,208.32z"
		/>
</g>
<path style="fill:#F44336;" d="M224,256c-35.296,0-64,28.704-64,64v55.04c0,7.328,4.992,13.76,12.128,15.52l96,24
	c1.28,0.32,2.592,0.48,3.872,0.48c3.52,0,7.008-1.152,9.856-3.36c3.872-3.04,6.144-7.712,6.144-12.64V320
	C288,284.704,259.296,256,224,256z"/>
<path style="fill:#6D4C41;" d="M256,416c-60.128,0-116.032-34.944-142.368-88.992c-3.872-7.936-0.576-17.504,7.36-21.376
	c8.032-3.84,17.536-0.576,21.376,7.36C163.392,356.128,208,384,256,384c47.968,0,92.576-27.872,113.632-71.008
	c3.936-7.968,13.6-11.136,21.376-7.36c7.968,3.872,11.264,13.44,7.36,21.376C372,381.056,316.128,416,256,416z"/>
<g>
</g>
<g>
</g>
<g>
</g>
<g>
</g>
<g>
</g>
<g>
</g>
<g>
</g>
<g>
</g>
<g>
</g>
<g>
</g>
<g>
</g>
<g>
</g>
<g>
</g>
<g>
</g>
<g>
</g>
</svg>
