<?xml version="1.0" encoding="iso-8859-1"?>
<!-- Generator: Adobe Illustrator 19.0.0, SVG Export Plug-In . SVG Version: 6.00 Build 0)  -->
<svg version="1.1" id="Capa_1" xmlns="http://www.w3.org/2000/svg" xmlns:xlink="http://www.w3.org/1999/xlink" x="0px" y="0px"
	 viewBox="0 0 512.025 512.025" style="enable-background:new 0 0 512.025 512.025;" xml:space="preserve">
<path style="fill:#FFCA28;" d="M495.783,397.378c-1.472-8.736-9.92-14.624-18.4-13.152c-8.704,1.44-14.624,9.696-13.152,18.4
	l7.776,46.752l-73.152-73.152c-6.24-6.24-16.384-6.24-22.624,0s-6.24,16.384,0,22.624l73.152,73.152l-46.752-7.776
	c-8.64-1.504-16.928,4.416-18.4,13.152c-1.472,8.704,4.448,16.96,13.152,18.4l96,16c0.864,0.16,1.76,0.224,2.624,0.224
	c4.224,0,8.288-1.664,11.328-4.672c3.648-3.648,5.312-8.832,4.48-13.952L495.783,397.378z"/>
<path style="fill:#F44336;" d="M381.607,96.002c-34.272,0-68.128,13.312-93.6,36.192c-25.44-22.88-59.328-36.192-93.6-36.192
	c-73.12,0-130.4,56.704-130.4,129.152c0,105.792,193.12,237.504,215.136,252.16c2.688,1.792,5.76,2.688,8.864,2.688
	c3.04,0,6.08-0.864,8.736-2.592c79.936-52.16,215.264-164,215.264-252.256C512.007,152.706,454.727,96.002,381.607,96.002z"/>
<path style="fill:#FFCA28;" d="M219.335,196.674l-79.648-79.616l5.216-30.464c0.864-5.12-0.768-10.336-4.448-14.016L72.583,4.674
	C68.327,0.45,62.087-0.99,56.423,0.738c-5.728,1.824-9.92,6.656-10.944,12.576L40.775,40.77l-27.456,4.704
	C7.399,46.498,2.567,50.69,0.743,56.418c-1.792,5.664-0.288,11.904,3.936,16.16l67.872,67.904c3.04,3.008,7.136,4.672,11.328,4.672
	c0.896,0,1.792-0.064,2.688-0.224l30.464-5.216l79.616,79.616c3.168,3.104,7.264,4.672,11.36,4.672s8.192-1.568,11.328-4.672
	C225.575,213.058,225.575,202.946,219.335,196.674z"/>
<g>
</g>
<g>
</g>
<g>
</g>
<g>
</g>
<g>
</g>
<g>
</g>
<g>
</g>
<g>
</g>
<g>
</g>
<g>
</g>
<g>
</g>
<g>
</g>
<g>
</g>
<g>
</g>
<g>
</g>
</svg>
