<?xml version="1.0" encoding="iso-8859-1"?>
<!-- Generator: Adobe Illustrator 19.0.0, SVG Export Plug-In . SVG Version: 6.00 Build 0)  -->
<svg version="1.1" id="Capa_1" xmlns="http://www.w3.org/2000/svg" xmlns:xlink="http://www.w3.org/1999/xlink" x="0px" y="0px"
	 viewBox="0 0 512 512" style="enable-background:new 0 0 512 512;" xml:space="preserve">
<circle style="fill:#FFCA28;" cx="256" cy="256" r="256"/>
<g>
	<circle style="fill:#6D4C41;" cx="160" cy="240" r="32"/>
	<circle style="fill:#6D4C41;" cx="352" cy="240" r="32"/>
	<path style="fill:#6D4C41;" d="M336,384H176c-8.832,0-16-7.168-16-16s7.168-16,16-16h160c8.832,0,16,7.168,16,16
		S344.832,384,336,384z"/>
	<path style="fill:#6D4C41;" d="M18.848,160h474.304c-15.104-37.184-38.72-69.888-68.384-96H87.232
		C57.568,90.112,33.952,122.816,18.848,160z"/>
</g>
<path style="fill:#2196F3;" d="M478.816,137.952c-4.928-12.032-24.672-12.032-29.632,0C441.408,156.992,416,220.672,416,240
	c0,26.464,21.536,48,48,48s48-21.536,48-48C512,220.672,486.592,156.992,478.816,137.952z"/>
<g>
</g>
<g>
</g>
<g>
</g>
<g>
</g>
<g>
</g>
<g>
</g>
<g>
</g>
<g>
</g>
<g>
</g>
<g>
</g>
<g>
</g>
<g>
</g>
<g>
</g>
<g>
</g>
<g>
</g>
</svg>
