<?xml version="1.0" encoding="iso-8859-1"?>
<!-- Generator: Adobe Illustrator 19.0.0, SVG Export Plug-In . SVG Version: 6.00 Build 0)  -->
<svg version="1.1" id="Capa_1" xmlns="http://www.w3.org/2000/svg" xmlns:xlink="http://www.w3.org/1999/xlink" x="0px" y="0px"
	 viewBox="0 0 512 512" style="enable-background:new 0 0 512 512;" xml:space="preserve">
<circle style="fill:#FFCA28;" cx="256" cy="256" r="256"/>
<path style="fill:#FAFAFA;" d="M438.016,262.368c-2.976-4.032-7.744-6.368-12.736-6.368H86.72c-5.024,0-9.728,2.336-12.768,6.368
	c-3.008,4-4,9.184-2.624,13.984c14.592,51.392,50.08,94.656,97.408,118.688c2.272,1.184,4.736,1.76,7.264,1.76h160
	c2.528,0,4.992-0.608,7.264-1.76c47.328-24.032,82.848-67.328,97.44-118.688C442.016,271.552,441.056,266.368,438.016,262.368z"/>
<g>
	<path style="fill:#6D4C41;" d="M368,224c-3.328,0-6.72-1.056-9.6-3.2l-64-48c-4.032-3.008-6.4-7.776-6.4-12.8s2.368-9.792,6.4-12.8
		l64-48c7.04-5.312,17.056-3.904,22.4,3.2c5.28,7.072,3.84,17.088-3.232,22.4L330.656,160l46.944,35.2
		c7.072,5.312,8.512,15.328,3.232,22.4C377.664,221.792,372.832,224,368,224z"/>
	<path style="fill:#6D4C41;" d="M144,224c-4.864,0-9.664-2.208-12.8-6.4c-5.312-7.072-3.872-17.088,3.2-22.4l46.944-35.2
		L134.4,124.8c-7.072-5.312-8.512-15.328-3.2-22.4s15.328-8.48,22.4-3.2l64,48c4.032,3.008,6.4,7.776,6.4,12.8
		s-2.368,9.792-6.4,12.8l-64,48C150.72,222.944,147.36,224,144,224z"/>
</g>
<path style="fill:#F44336;" d="M320,320H192c-17.632,0-32,14.336-32,32v64c0,52.928,43.072,96,96,96s96-43.072,96-96v-64
	C352,334.336,337.664,320,320,320z"/>
<g>
</g>
<g>
</g>
<g>
</g>
<g>
</g>
<g>
</g>
<g>
</g>
<g>
</g>
<g>
</g>
<g>
</g>
<g>
</g>
<g>
</g>
<g>
</g>
<g>
</g>
<g>
</g>
<g>
</g>
</svg>
