<?xml version="1.0" encoding="iso-8859-1"?>
<!-- Generator: Adobe Illustrator 19.0.0, SVG Export Plug-In . SVG Version: 6.00 Build 0)  -->
<svg version="1.1" id="Capa_1" xmlns="http://www.w3.org/2000/svg" xmlns:xlink="http://www.w3.org/1999/xlink" x="0px" y="0px"
	 viewBox="0 0 512 512" style="enable-background:new 0 0 512 512;" xml:space="preserve">
<path style="fill:#C62828;" d="M364,48c-39.648,0-78.912,14.912-108,40.512C226.912,62.912,187.648,48,148,48
	C65.024,48,0,109.248,0,187.424C0,302.336,222.144,445.6,247.456,461.536C250.08,463.2,253.024,464,256,464
	c2.912,0,5.824-0.768,8.416-2.368C356.384,404.864,512,283.296,512,187.424C512,109.248,447.008,48,364,48z"/>
<path style="fill:#E53935;" d="M336.992,144c-29.504,0-58.72,10.688-80.992,29.12C233.728,154.688,204.512,144,175.008,144
	C110.528,144,60,191.68,60,252.576c0,86.528,156.16,189.248,187.456,208.96C250.08,463.2,253.024,464,256,464
	c2.912,0,5.824-0.768,8.416-2.368C283.616,449.792,452,343.296,452,252.576C452,191.68,401.504,144,336.992,144z"/>
<path style="fill:#F44336;" d="M309.984,240c-19.424,0-38.688,6.56-53.984,17.984C240.704,246.56,221.408,240,201.984,240
	C156,240,120,274.112,120,317.728c0,60.416,106.176,130.4,127.456,143.808C250.08,463.2,253.024,464,256,464
	c2.912,0,5.824-0.768,8.416-2.368C277.472,453.568,392,381.024,392,317.728C392,274.112,355.968,240,309.984,240z"/>
<g>
</g>
<g>
</g>
<g>
</g>
<g>
</g>
<g>
</g>
<g>
</g>
<g>
</g>
<g>
</g>
<g>
</g>
<g>
</g>
<g>
</g>
<g>
</g>
<g>
</g>
<g>
</g>
<g>
</g>
</svg>
