<?xml version="1.0" encoding="iso-8859-1"?>
<!-- Generator: Adobe Illustrator 19.0.0, SVG Export Plug-In . SVG Version: 6.00 Build 0)  -->
<svg version="1.1" id="Capa_1" xmlns="http://www.w3.org/2000/svg" xmlns:xlink="http://www.w3.org/1999/xlink" x="0px" y="0px"
	 viewBox="0 0 512.373 512.373" style="enable-background:new 0 0 512.373 512.373;" xml:space="preserve">
<path style="fill:#AB47BC;" d="M481.882,136.117c31.008-69.248,2.176-124.832,0.896-127.264
	c-3.456-6.464-10.688-10.176-18.016-8.416c-7.136,1.792-12.096,7.776-12.096,15.136c0,0.16-2.144,17.12-32.96,44.32
	c-45.728-38.496-103.264-59.52-163.52-59.52c-60.224,0-117.76,21.056-163.52,59.52c-30.336-26.784-32.896-43.52-32.96-43.52l0,0
	c0-7.328-4.992-13.76-12.128-15.52c-7.168-1.76-14.528,1.536-18.016,8c-1.28,2.4-30.08,58.016,0.928,127.264
	C10.65,173.045,0.186,214.453,0.186,256.373c0,141.152,114.848,256,256,256s256-114.848,256-256
	C512.186,214.453,501.722,173.045,481.882,136.117z"/>
<g>
	<path style="fill:#263238;" d="M128.186,240.373c0,26.464,21.536,48,48,48s48-21.536,48-48c0-14.56-6.496-28.16-17.824-37.312l0,0
		l0,0l-68.128-55.136c-6.848-5.536-16.96-4.448-22.496,2.4c-5.568,6.848-4.48,16.928,2.4,22.496l33.088,26.784
		C137.466,208.021,128.186,223.093,128.186,240.373z M186.234,227.925c3.776,3.072,5.952,7.584,5.952,12.448c0,8.832-7.168,16-16,16
		s-16-7.168-16-16s7.168-16,16-16C180.858,224.373,184.218,226.293,186.234,227.925L186.234,227.925z"/>
	<path style="fill:#263238;" d="M396.634,150.325c-5.536-6.88-15.616-7.936-22.496-2.368l-68.128,55.072
		c-11.328,9.152-17.824,22.752-17.824,37.344c0,26.464,21.536,48,48,48s48-21.536,48-48c0-17.28-9.28-32.352-23.04-40.8
		l33.088-26.752C401.114,167.253,402.17,157.173,396.634,150.325z M336.186,224.373c8.8,0,16,7.168,16,16s-7.2,16-16,16
		s-16-7.168-16-16c0-4.864,2.144-9.408,5.952-12.448C328.122,226.293,331.514,224.373,336.186,224.373z"/>
</g>
<path style="fill:#FAFAFA;" d="M426.266,327.989c-2.88-4.736-8.064-7.616-13.6-7.616H99.706c-5.568,0-10.72,2.88-13.632,7.616
	c-2.912,4.704-3.168,10.624-0.672,15.584c32.704,64.64,98.112,104.8,170.784,104.8s138.08-40.16,170.752-104.768
	C429.434,338.613,429.178,332.725,426.266,327.989z"/>
<g>
</g>
<g>
</g>
<g>
</g>
<g>
</g>
<g>
</g>
<g>
</g>
<g>
</g>
<g>
</g>
<g>
</g>
<g>
</g>
<g>
</g>
<g>
</g>
<g>
</g>
<g>
</g>
<g>
</g>
</svg>
