<?xml version="1.0" encoding="iso-8859-1"?>
<!-- Generator: Adobe Illustrator 19.0.0, SVG Export Plug-In . SVG Version: 6.00 Build 0)  -->
<svg version="1.1" id="Capa_1" xmlns="http://www.w3.org/2000/svg" xmlns:xlink="http://www.w3.org/1999/xlink" x="0px" y="0px"
	 viewBox="0 0 512 512" style="enable-background:new 0 0 512 512;" xml:space="preserve">
<circle style="fill:#FFCA28;" cx="256" cy="256" r="256"/>
<g>
	<path style="fill:#4CAF50;" d="M336,192c-8.8,0-16-7.168-16-16s7.2-16,16-16h32c8.832,0,16-7.136,16-16c0-8.8-7.168-16-16-16h-16
		v-16c0-8.832-7.168-16-16-16s-16,7.168-16,16v18.944c-18.592,6.624-32,24.224-32,45.056c0,26.464,21.536,48,48,48
		c8.8,0,16,7.168,16,16s-7.2,16-16,16h-32c-8.832,0-16,7.168-16,16s7.168,16,16,16h16v16c0,8.832,7.168,16,16,16s16-7.168,16-16
		v-18.944c18.592-6.624,32-24.224,32-45.056C384,213.536,362.464,192,336,192z"/>
	<path style="fill:#4CAF50;" d="M176,192c-8.832,0-16-7.168-16-16s7.168-16,16-16h32c8.832,0,16-7.136,16-16c0-8.8-7.168-16-16-16
		h-16v-16c0-8.832-7.168-16-16-16s-16,7.168-16,16v18.944c-18.592,6.624-32,24.224-32,45.056c0,26.464,21.536,48,48,48
		c8.832,0,16,7.168,16,16s-7.168,16-16,16h-32c-8.832,0-16,7.168-16,16s7.168,16,16,16h16v16c0,8.832,7.168,16,16,16s16-7.168,16-16
		v-18.944c18.592-6.624,32-24.224,32-45.056C224,213.536,202.464,192,176,192z"/>
</g>
<path style="fill:#6D4C41;" d="M256,448c-85.6,0-161.536-57.44-184.672-139.648c-2.4-8.544,2.56-17.344,11.072-19.744
	c8.48-2.368,17.344,2.56,19.744,11.072C121.376,368.16,184.672,416,256,416s134.592-47.84,153.888-116.352
	c2.4-8.512,11.104-13.504,19.744-11.072c8.512,2.4,13.44,11.264,11.072,19.744C417.536,390.56,341.6,448,256,448z"/>
<g>
</g>
<g>
</g>
<g>
</g>
<g>
</g>
<g>
</g>
<g>
</g>
<g>
</g>
<g>
</g>
<g>
</g>
<g>
</g>
<g>
</g>
<g>
</g>
<g>
</g>
<g>
</g>
<g>
</g>
</svg>
