<?xml version="1.0" encoding="iso-8859-1"?>
<!-- Generator: Adobe Illustrator 19.0.0, SVG Export Plug-In . SVG Version: 6.00 Build 0)  -->
<svg version="1.1" id="Capa_1" xmlns="http://www.w3.org/2000/svg" xmlns:xlink="http://www.w3.org/1999/xlink" x="0px" y="0px"
	 viewBox="0 0 512 512" style="enable-background:new 0 0 512 512;" xml:space="preserve">
<circle style="fill:#FFCA28;" cx="256" cy="256" r="256"/>
<g>
	<path style="fill:#6D4C41;" d="M368,256c-3.328,0-6.72-1.056-9.6-3.2l-64-48c-4.032-3.008-6.4-7.776-6.4-12.8s2.368-9.792,6.4-12.8
		l64-48c7.04-5.28,17.056-3.904,22.4,3.2c5.28,7.072,3.84,17.088-3.232,22.4L330.656,192l46.944,35.2
		c7.072,5.312,8.512,15.328,3.232,22.4C377.664,253.792,372.832,256,368,256z"/>
	<path style="fill:#6D4C41;" d="M144,256c-4.864,0-9.664-2.208-12.8-6.4c-5.312-7.072-3.872-17.088,3.2-22.4l46.944-35.2
		L134.4,156.8c-7.072-5.312-8.512-15.328-3.2-22.4c5.312-7.072,15.328-8.512,22.4-3.2l64,48c4.032,3.008,6.4,7.776,6.4,12.8
		s-2.368,9.792-6.4,12.8l-64,48C150.72,254.944,147.36,256,144,256z"/>
</g>
<path style="fill:#F44336;" d="M304,288h-96c-8.832,0-16,7.168-16,16v80c0,35.296,28.704,64,64,64s64-28.704,64-64v-80
	C320,295.168,312.832,288,304,288z"/>
<path style="fill:#6D4C41;" d="M368,320H144c-8.832,0-16-7.168-16-16s7.168-16,16-16h224c8.832,0,16,7.168,16,16
	S376.832,320,368,320z"/>
<g>
</g>
<g>
</g>
<g>
</g>
<g>
</g>
<g>
</g>
<g>
</g>
<g>
</g>
<g>
</g>
<g>
</g>
<g>
</g>
<g>
</g>
<g>
</g>
<g>
</g>
<g>
</g>
<g>
</g>
</svg>
