<?xml version="1.0" encoding="iso-8859-1"?>
<!-- Generator: Adobe Illustrator 19.0.0, SVG Export Plug-In . SVG Version: 6.00 Build 0)  -->
<svg version="1.1" id="Capa_1" xmlns="http://www.w3.org/2000/svg" xmlns:xlink="http://www.w3.org/1999/xlink" x="0px" y="0px"
	 viewBox="0 0 512 512" style="enable-background:new 0 0 512 512;" xml:space="preserve">
<path style="fill:#FFCA28;" d="M256,0C114.848,0,0,114.848,0,256s114.848,256,256,256s256-114.848,256-256S397.152,0,256,0z"/>
<g>
	<path style="fill:#6D4C41;" d="M352,128c-35.296,0-64,28.704-64,64c0,8.832,7.168,16,16,16s16-7.168,16-16
		c0-17.632,14.336-32,32-32s32,14.368,32,32c0,8.832,7.168,16,16,16s16-7.168,16-16C416,156.704,387.296,128,352,128z"/>
	<path style="fill:#6D4C41;" d="M192,192c0,8.832,7.168,16,16,16s16-7.168,16-16c0-35.296-28.704-64-64-64s-64,28.704-64,64
		c0,8.832,7.168,16,16,16s16-7.168,16-16c0-17.632,14.368-32,32-32S192,174.368,192,192z"/>
	<path style="fill:#6D4C41;" d="M352,272c-8.832,0-16,7.168-16,16c0,17.664-14.336,32-32,32c-17.632,0-32-14.336-32-32
		c0-8.832-7.168-16-16-16s-16,7.168-16,16c0,17.664-14.368,32-32,32s-32-14.336-32-32c0-8.832-7.168-16-16-16s-16,7.168-16,16
		c0,35.296,28.704,64,64,64c19.104,0,36.256-8.416,48-21.728C267.744,343.584,284.896,352,304,352c35.296,0,64-28.704,64-64
		C368,279.168,360.832,272,352,272z"/>
</g>
<g>
</g>
<g>
</g>
<g>
</g>
<g>
</g>
<g>
</g>
<g>
</g>
<g>
</g>
<g>
</g>
<g>
</g>
<g>
</g>
<g>
</g>
<g>
</g>
<g>
</g>
<g>
</g>
<g>
</g>
</svg>
