<?xml version="1.0" encoding="iso-8859-1"?>
<!-- Generator: Adobe Illustrator 19.0.0, SVG Export Plug-In . SVG Version: 6.00 Build 0)  -->
<svg version="1.1" id="Capa_1" xmlns="http://www.w3.org/2000/svg" xmlns:xlink="http://www.w3.org/1999/xlink" x="0px" y="0px"
	 viewBox="0 0 512 512" style="enable-background:new 0 0 512 512;" xml:space="preserve">
<circle style="fill:#FFCA28;" cx="256" cy="256" r="256"/>
<path style="fill:#FAFAFA;" d="M438.016,294.336c-3.008-4-7.744-6.336-12.736-6.336H86.72c-5.024,0-9.728,2.336-12.736,6.336
	c-3.04,4-4.032,9.152-2.656,14.016C94.464,390.56,170.4,448,256,448s161.536-57.44,184.672-139.648
	C442.016,303.488,441.056,298.336,438.016,294.336z"/>
<g>
	<path style="fill:#F44336;" d="M188.8,128c-10.144,0-20.224,2.88-28.8,8.032c-8.576-5.152-18.656-8.032-28.8-8.032
		c-28.704,0-51.2,21.344-51.2,48.64c0,29.728,36.928,55.296,71.52,76.928C154.112,255.2,157.056,256,160,256
		c2.88,0,5.792-0.768,8.352-2.368C205.568,230.88,240,205.792,240,176.64C240,149.344,217.504,128,188.8,128z"/>
	<path style="fill:#F44336;" d="M396.8,128c-10.144,0-20.224,2.88-28.8,8.032c-8.608-5.152-18.656-8.032-28.8-8.032
		c-28.736,0-51.2,21.344-51.2,48.64c0,29.76,36.896,55.328,71.52,76.928C362.112,255.2,365.056,256,368,256
		c2.912,0,5.792-0.768,8.352-2.336C413.568,230.88,448,205.792,448,176.64C448,149.344,425.536,128,396.8,128z"/>
</g>
<g>
</g>
<g>
</g>
<g>
</g>
<g>
</g>
<g>
</g>
<g>
</g>
<g>
</g>
<g>
</g>
<g>
</g>
<g>
</g>
<g>
</g>
<g>
</g>
<g>
</g>
<g>
</g>
<g>
</g>
</svg>
