<?xml version="1.0" encoding="iso-8859-1"?>
<!-- Generator: Adobe Illustrator 19.0.0, SVG Export Plug-In . SVG Version: 6.00 Build 0)  -->
<svg version="1.1" id="Capa_1" xmlns="http://www.w3.org/2000/svg" xmlns:xlink="http://www.w3.org/1999/xlink" x="0px" y="0px"
	 viewBox="0 0 512 512" style="enable-background:new 0 0 512 512;" xml:space="preserve">
<circle style="fill:#FFCA28;" cx="256" cy="256" r="256"/>
<g>
	<path style="fill:#6D4C41;" d="M400,208c-8.832,0-16-7.168-16-16c0-17.632-14.336-32-32-32s-32,14.368-32,32
		c0,8.832-7.168,16-16,16s-16-7.168-16-16c0-35.296,28.704-64,64-64s64,28.704,64,64C416,200.832,408.832,208,400,208z"/>
	<path style="fill:#6D4C41;" d="M208,208c-8.832,0-16-7.168-16-16c0-17.632-14.368-32-32-32s-32,14.368-32,32
		c0,8.832-7.168,16-16,16s-16-7.168-16-16c0-35.296,28.704-64,64-64s64,28.704,64,64C224,200.832,216.832,208,208,208z"/>
</g>
<path style="fill:#F44336;" d="M426.08,295.616c-2.88-4.736-8.064-7.616-13.6-7.616H99.52c-5.568,0-10.72,2.88-13.632,7.616
	s-3.168,10.624-0.64,15.616C117.92,375.84,183.328,416,256,416s138.08-40.16,170.752-104.768
	C429.248,306.24,428.992,300.352,426.08,295.616z"/>
<g>
	<path style="fill:#03A9F4;" d="M497.952,222.048c-13.856-13.856-63.328-29.792-83.936-36c-5.696-1.728-11.808-0.128-15.968,4
		c-4.16,4.16-5.728,10.272-4,15.936c6.208,20.64,22.144,70.112,36,83.968c9.344,9.344,21.664,14.016,33.952,14.016
		s24.608-4.672,33.952-14.016C516.672,271.232,516.672,240.768,497.952,222.048z"/>
	<path style="fill:#03A9F4;" d="M113.952,190.048c-4.16-4.16-10.304-5.76-15.936-4c-20.64,6.208-70.112,22.144-83.968,36
		c-18.72,18.72-18.72,49.152,0,67.872c9.376,9.376,21.664,14.048,33.952,14.048s24.576-4.672,33.952-14.016
		c13.856-13.856,29.792-63.328,36-83.968C119.648,200.352,118.112,194.24,113.952,190.048z"/>
</g>
<g>
</g>
<g>
</g>
<g>
</g>
<g>
</g>
<g>
</g>
<g>
</g>
<g>
</g>
<g>
</g>
<g>
</g>
<g>
</g>
<g>
</g>
<g>
</g>
<g>
</g>
<g>
</g>
<g>
</g>
</svg>
