<?xml version="1.0" encoding="iso-8859-1"?>
<!-- Generator: Adobe Illustrator 19.0.0, SVG Export Plug-In . SVG Version: 6.00 Build 0)  -->
<svg version="1.1" id="Capa_1" xmlns="http://www.w3.org/2000/svg" xmlns:xlink="http://www.w3.org/1999/xlink" x="0px" y="0px"
	 viewBox="0 0 512.127 512.127" style="enable-background:new 0 0 512.127 512.127;" xml:space="preserve">
<circle style="fill:#FFCA28;" cx="256.112" cy="256.064" r="256"/>
<g>
	<path style="fill:#6D4C41;" d="M352.112,208.064c-35.296,0-64-28.704-64-64c0-8.832,7.168-16,16-16s16,7.168,16,16
		c0,17.632,14.336,32,32,32s32-14.368,32-32c0-8.832,7.168-16,16-16s16,7.168,16,16C416.112,179.36,387.408,208.064,352.112,208.064
		z"/>
	<path style="fill:#6D4C41;" d="M160.112,208.064c-35.296,0-64-28.704-64-64c0-8.832,7.168-16,16-16s16,7.168,16,16
		c0,17.632,14.368,32,32,32s32-14.368,32-32c0-8.832,7.168-16,16-16s16,7.168,16,16C224.112,179.36,195.408,208.064,160.112,208.064
		z"/>
	<path style="fill:#6D4C41;" d="M171.632,315.584c-4.928,0-9.792-2.272-12.928-6.528c-5.216-7.136-3.648-17.152,3.456-22.368
		c56.224-41.184,131.712-41.184,187.872,0c7.136,5.216,8.672,15.264,3.424,22.368c-5.184,7.168-15.2,8.672-22.368,3.424
		c-44.8-32.864-105.12-32.864-150.016,0C178.224,314.592,174.928,315.584,171.632,315.584z"/>
</g>
<path style="fill:#FAFAFA;" d="M156.72,391.808c-1.568,9.6-6.048,18.816-13.472,26.24c-15.392,15.392-38.464,18.112-56.576,8.16
	c-18.112,9.952-41.184,7.232-56.576-8.16s-18.112-38.464-8.16-56.576c-9.952-18.112-7.232-41.184,8.16-56.576
	c7.424-7.424,16.64-11.904,26.24-13.472l119.776-19.36L156.72,391.808z"/>
<path style="fill:#ECEFF1;" d="M63.984,448c-16.544,0-32.96-6.4-45.184-18.624C0.624,411.2-4.752,384.768,4.336,361.472
	C-4.752,338.176,0.624,311.808,18.8,293.6c9.6-9.568,21.696-15.776,35.008-17.952l119.744-19.392c5.152-0.8,10.24,0.832,13.888,4.48
	c3.616,3.648,5.28,8.8,4.48,13.888l-19.36,119.712l0,0c-2.176,13.312-8.384,25.44-17.952,35.04
	c-17.92,17.888-44.8,23.296-67.904,14.4C79.376,446.592,71.664,448,63.984,448z M156.784,291.392l-97.856,15.84
	c-6.624,1.088-12.672,4.192-17.504,8.992c-10.048,10.048-12.224,25.152-5.44,37.536c2.656,4.8,2.656,10.624,0,15.392
	c-6.816,12.416-4.64,27.52,5.44,37.6s25.152,12.192,37.536,5.44c4.8-2.688,10.624-2.656,15.424-0.032
	c12.352,6.848,27.488,4.672,37.536-5.408c4.8-4.8,7.904-10.88,8.992-17.536L156.784,291.392z M156.752,391.776h0.32H156.752z"/>
<path style="fill:#FAFAFA;" d="M355.408,391.808c1.568,9.6,6.048,18.816,13.472,26.24c15.392,15.392,38.464,18.112,56.576,8.16
	c18.112,9.952,41.184,7.232,56.576-8.16s18.112-38.464,8.16-56.576c9.952-18.112,7.232-41.184-8.16-56.576
	c-7.424-7.424-16.64-11.904-26.24-13.472l-119.776-19.36L355.408,391.808z"/>
<path style="fill:#ECEFF1;" d="M425.424,443.776c-23.104,8.864-50.016,3.456-67.904-14.4c-9.568-9.6-15.776-21.728-17.952-35.04l0,0
	l-19.36-119.712c-0.8-5.088,0.832-10.24,4.48-13.888c3.616-3.648,8.736-5.28,13.888-4.48l119.744,19.36
	c13.312,2.176,25.376,8.384,35.008,17.952c18.176,18.208,23.552,44.608,14.464,67.872c9.088,23.328,3.712,49.728-14.464,67.904
	c-12.224,12.224-28.64,18.624-45.184,18.624C440.464,448,432.752,446.592,425.424,443.776z M371.184,389.216
	c1.088,6.656,4.192,12.704,8.992,17.536c10.048,10.048,25.216,12.256,37.536,5.408c4.8-2.624,10.624-2.656,15.424,0.032
	c12.384,6.752,27.456,4.64,37.536-5.44s12.256-25.184,5.44-37.6c-2.624-4.768-2.624-10.592,0-15.392
	c6.784-12.384,4.608-27.456-5.44-37.536c-4.832-4.768-10.88-7.904-17.504-8.992l-97.824-15.808L371.184,389.216z M355.088,391.776
	h0.32H355.088z"/>
<g>
</g>
<g>
</g>
<g>
</g>
<g>
</g>
<g>
</g>
<g>
</g>
<g>
</g>
<g>
</g>
<g>
</g>
<g>
</g>
<g>
</g>
<g>
</g>
<g>
</g>
<g>
</g>
<g>
</g>
</svg>
