<?xml version="1.0" encoding="iso-8859-1"?>
<!-- Generator: Adobe Illustrator 19.0.0, SVG Export Plug-In . SVG Version: 6.00 Build 0)  -->
<svg version="1.1" id="Capa_1" xmlns="http://www.w3.org/2000/svg" xmlns:xlink="http://www.w3.org/1999/xlink" x="0px" y="0px"
	 viewBox="0 0 512 512" style="enable-background:new 0 0 512 512;" xml:space="preserve">
<g>
	<path style="fill:#263238;" d="M504,192C355.84,85.44,156.16,85.44,8,192C36.48,81.6,136.64,0,256,0S475.52,81.6,504,192z"/>
	<path style="fill:#263238;" d="M512,256c0,141.44-114.56,256-256,256S0,397.44,0,256c0-22.08,2.88-43.52,8-64
		c148.16,106.56,347.84,106.56,496,0C509.12,212.48,512,233.92,512,256z"/>
</g>
<path style="fill:#FFCA28;" d="M504,192C355.84,298.56,156.16,298.56,8,192C156.16,85.44,355.84,85.44,504,192z"/>
<g>
	<circle style="fill:#6D4C41;" cx="160" cy="192" r="32"/>
	<circle style="fill:#6D4C41;" cx="352" cy="192" r="32"/>
</g>
<g>
</g>
<g>
</g>
<g>
</g>
<g>
</g>
<g>
</g>
<g>
</g>
<g>
</g>
<g>
</g>
<g>
</g>
<g>
</g>
<g>
</g>
<g>
</g>
<g>
</g>
<g>
</g>
<g>
</g>
</svg>
