<?xml version="1.0" encoding="iso-8859-1"?>
<!-- Generator: Adobe Illustrator 19.0.0, SVG Export Plug-In . SVG Version: 6.00 Build 0)  -->
<svg version="1.1" id="Capa_1" xmlns="http://www.w3.org/2000/svg" xmlns:xlink="http://www.w3.org/1999/xlink" x="0px" y="0px"
	 viewBox="0 0 512 512" style="enable-background:new 0 0 512 512;" xml:space="preserve">
<circle style="fill:#FFCA28;" cx="256" cy="256" r="256"/>
<path style="fill:#F44336;" d="M461.216,370.784l-40.32-40.352c-3.84-3.872-9.472-5.44-14.816-4.32
	c-5.344,1.216-9.728,5.056-11.552,10.208L379.2,379.2l-42.848,15.328c-5.152,1.856-8.992,6.208-10.208,11.552
	c-1.184,5.344,0.448,10.944,4.32,14.816l40.352,40.32C382.72,473.152,399.2,480,416,480s33.28-6.848,45.216-18.784
	c12.16-12.16,18.88-28.224,18.88-45.216S473.376,382.944,461.216,370.784z"/>
<g>
	<path style="fill:#6D4C41;" d="M256,448c-85.6,0-161.536-57.44-184.672-139.648c-2.4-8.544,2.56-17.344,11.072-19.744
		c8.48-2.368,17.344,2.56,19.744,11.072C121.376,368.16,184.672,416,256,416s134.592-47.84,153.888-116.352
		c2.4-8.512,11.104-13.504,19.744-11.072c8.512,2.4,13.44,11.264,11.072,19.744C417.536,390.56,341.6,448,256,448z"/>
	<path style="fill:#6D4C41;" d="M400,208c-8.832,0-16-7.168-16-16c0-17.632-14.336-32-32-32s-32,14.368-32,32
		c0,8.832-7.168,16-16,16s-16-7.168-16-16c0-35.296,28.704-64,64-64s64,28.704,64,64C416,200.832,408.832,208,400,208z"/>
	<path style="fill:#6D4C41;" d="M208,208c-8.832,0-16-7.168-16-16c0-17.632-14.368-32-32-32s-32,14.368-32,32
		c0,8.832-7.168,16-16,16s-16-7.168-16-16c0-35.296,28.704-64,64-64s64,28.704,64,64C224,200.832,216.832,208,208,208z"/>
</g>
<g>
</g>
<g>
</g>
<g>
</g>
<g>
</g>
<g>
</g>
<g>
</g>
<g>
</g>
<g>
</g>
<g>
</g>
<g>
</g>
<g>
</g>
<g>
</g>
<g>
</g>
<g>
</g>
<g>
</g>
</svg>
