<?xml version="1.0" encoding="iso-8859-1"?>
<!-- Generator: Adobe Illustrator 19.0.0, SVG Export Plug-In . SVG Version: 6.00 Build 0)  -->
<svg version="1.1" id="Capa_1" xmlns="http://www.w3.org/2000/svg" xmlns:xlink="http://www.w3.org/1999/xlink" x="0px" y="0px"
	 viewBox="0 0 512 512" style="enable-background:new 0 0 512 512;" xml:space="preserve">
<circle style="fill:#FFCA28;" cx="256" cy="256" r="256"/>
<g>
	<path style="fill:#6D4C41;" d="M259.808,369.248c11.2-6.4,19.808-14.752,25.952-25.056c3.776-6.336,2.72-14.464-2.56-19.616
		c-24.8-24.288-50.624-35.264-76.864-32.48c-8.768,0.896-15.168,8.768-14.272,17.568s8.736,15.104,17.568,14.24
		c12.96-1.344,26.144,3.168,39.904,13.696c-9.408,7.456-23.744,12.256-43.392,14.496c-8.032,0.928-14.112,7.712-14.144,15.808
		s5.984,14.944,13.984,15.968c16.192,2.048,29.696,7.104,41.44,15.584c-13.856,9.92-27.488,15.456-40.736,16.608
		c-8.8,0.704-15.36,8.48-14.624,17.28C192.736,441.696,199.744,448,208,448c0.448,0,0.896-0.032,1.344-0.064
		c24.864-2.048,49.6-14.208,73.472-36.16c3.168-2.88,5.024-6.912,5.184-11.136c0.16-4.288-1.376-8.448-4.288-11.52
		C276.352,381.216,268.416,374.624,259.808,369.248z"/>
	<path style="fill:#6D4C41;" d="M352,128c-35.296,0-64,28.704-64,64c0,8.832,7.168,16,16,16s16-7.168,16-16
		c0-17.632,14.336-32,32-32s32,14.368,32,32c0,8.832,7.168,16,16,16s16-7.168,16-16C416,156.704,387.296,128,352,128z"/>
	<path style="fill:#6D4C41;" d="M208,208c8.832,0,16-7.168,16-16c0-35.296-28.704-64-64-64s-64,28.704-64,64c0,8.832,7.168,16,16,16
		s16-7.168,16-16c0-17.632,14.368-32,32-32s32,14.368,32,32C192,200.832,199.168,208,208,208z"/>
</g>
<path style="fill:#F44336;" d="M452,320c-12.768,0-25.472,4.064-36,11.296C405.472,324.064,392.768,320,380,320
	c-33.664,0-60,26.144-60,59.52c0,36.672,44.96,69.696,87.136,97.792c2.688,1.792,5.76,2.688,8.864,2.688
	c3.04,0,6.08-0.864,8.736-2.592C467.872,449.248,512,415.616,512,379.52C512,346.144,485.664,320,452,320z"/>
<g>
</g>
<g>
</g>
<g>
</g>
<g>
</g>
<g>
</g>
<g>
</g>
<g>
</g>
<g>
</g>
<g>
</g>
<g>
</g>
<g>
</g>
<g>
</g>
<g>
</g>
<g>
</g>
<g>
</g>
</svg>
