<?xml version="1.0" encoding="iso-8859-1"?>
<!-- Generator: Adobe Illustrator 19.0.0, SVG Export Plug-In . SVG Version: 6.00 Build 0)  -->
<svg version="1.1" id="Capa_1" xmlns="http://www.w3.org/2000/svg" xmlns:xlink="http://www.w3.org/1999/xlink" x="0px" y="0px"
	 viewBox="0 0 512 512" style="enable-background:new 0 0 512 512;" xml:space="preserve">
<circle style="fill:#FFCA28;" cx="256" cy="256" r="256"/>
<circle style="fill:#F44336;" cx="256" cy="352" r="80"/>
<g>
	<path style="fill:#6D4C41;" d="M358.624,176l20.672-20.672c6.24-6.24,6.24-16.384,0-22.624s-16.384-6.24-22.624,0L336,153.376
		l-20.672-20.704c-6.24-6.24-16.384-6.24-22.624,0c-6.24,6.24-6.24,16.384,0,22.624L313.376,176l-20.704,20.672
		c-6.24,6.24-6.24,16.384,0,22.624C295.808,222.432,299.904,224,304,224s8.192-1.568,11.328-4.672L336,198.624l20.672,20.672
		C359.808,222.432,363.904,224,368,224s8.192-1.568,11.328-4.672c6.24-6.24,6.24-16.384,0-22.624L358.624,176z"/>
	<path style="fill:#6D4C41;" d="M219.328,132.672c-6.24-6.24-16.384-6.24-22.624,0L176,153.376l-20.672-20.704
		c-6.24-6.24-16.384-6.24-22.624,0c-6.24,6.24-6.24,16.384,0,22.624L153.376,176l-20.704,20.672c-6.24,6.24-6.24,16.384,0,22.624
		C135.808,222.432,139.904,224,144,224s8.192-1.568,11.328-4.672L176,198.624l20.672,20.672C199.808,222.432,203.904,224,208,224
		s8.192-1.568,11.328-4.672c6.24-6.24,6.24-16.384,0-22.624L198.624,176l20.672-20.672
		C225.568,149.056,225.568,138.944,219.328,132.672z"/>
</g>
<g>
</g>
<g>
</g>
<g>
</g>
<g>
</g>
<g>
</g>
<g>
</g>
<g>
</g>
<g>
</g>
<g>
</g>
<g>
</g>
<g>
</g>
<g>
</g>
<g>
</g>
<g>
</g>
<g>
</g>
</svg>
