<?xml version="1.0" encoding="iso-8859-1"?>
<!-- Generator: Adobe Illustrator 19.0.0, SVG Export Plug-In . SVG Version: 6.00 Build 0)  -->
<svg version="1.1" id="Capa_1" xmlns="http://www.w3.org/2000/svg" xmlns:xlink="http://www.w3.org/1999/xlink" x="0px" y="0px"
	 viewBox="0 0 512.008 512.008" style="enable-background:new 0 0 512.008 512.008;" xml:space="preserve">
<circle style="fill:#FFCA28;" cx="256.008" cy="256.004" r="256"/>
<g>
	<circle style="fill:#6D4C41;" cx="368.008" cy="192.004" r="32"/>
	<path style="fill:#6D4C41;" d="M304.008,384.004h-96c-8.832,0-16-7.168-16-16s7.168-16,16-16h96c8.832,0,16,7.168,16,16
		S312.84,384.004,304.008,384.004z"/>
</g>
<path style="fill:#607D8B;" d="M16.008,368.004c-4.096,0-8.192-1.568-11.328-4.672c-6.24-6.24-6.24-16.384,0-22.624l92.16-92.16
	c6.24-6.24,16.384-6.24,22.624,0s6.24,16.384,0,22.624l-92.16,92.16C24.2,366.436,20.104,368.004,16.008,368.004z"/>
<circle style="fill:#03A9F4;" cx="176.008" cy="192.004" r="112"/>
<circle style="fill:#6D4C41;" cx="176.008" cy="192.004" r="32"/>
<g>
</g>
<g>
</g>
<g>
</g>
<g>
</g>
<g>
</g>
<g>
</g>
<g>
</g>
<g>
</g>
<g>
</g>
<g>
</g>
<g>
</g>
<g>
</g>
<g>
</g>
<g>
</g>
<g>
</g>
</svg>
