<?xml version="1.0" encoding="iso-8859-1"?>
<!-- Generator: Adobe Illustrator 19.0.0, SVG Export Plug-In . SVG Version: 6.00 Build 0)  -->
<svg version="1.1" id="Capa_1" xmlns="http://www.w3.org/2000/svg" xmlns:xlink="http://www.w3.org/1999/xlink" x="0px" y="0px"
	 viewBox="0 0 512 512" style="enable-background:new 0 0 512 512;" xml:space="preserve">
<circle style="fill:#FFCA28;" cx="256" cy="256" r="256"/>
<g>
	<path style="fill:#6D4C41;" d="M208,192h-96c-8.832,0-16-7.168-16-16s7.168-16,16-16h96c8.832,0,16,7.168,16,16
		S216.832,192,208,192z"/>
	<path style="fill:#6D4C41;" d="M400,192h-96c-8.832,0-16-7.168-16-16s7.168-16,16-16h96c8.832,0,16,7.168,16,16
		S408.832,192,400,192z"/>
	<path style="fill:#6D4C41;" d="M336,376.32c-3.072,0-6.144-0.864-8.896-2.688c-43.2-28.928-98.976-28.928-142.208,0
		c-7.36,4.832-17.28,2.88-22.176-4.416c-4.928-7.328-2.944-17.28,4.416-22.208c54.016-36.064,123.808-36.064,177.792,0
		c7.328,4.928,9.312,14.88,4.416,22.208C346.208,373.824,341.152,376.32,336,376.32z"/>
</g>
<g>
	<path style="fill:#03A9F4;" d="M192,480V192h-64v288c-17.664,0-32,14.336-32,32h32h64h32C224,494.336,209.664,480,192,480z"/>
	<path style="fill:#03A9F4;" d="M384,480V192h-64v288c-17.664,0-32,14.336-32,32h32h64h32C416,494.336,401.664,480,384,480z"/>
</g>
<g>
</g>
<g>
</g>
<g>
</g>
<g>
</g>
<g>
</g>
<g>
</g>
<g>
</g>
<g>
</g>
<g>
</g>
<g>
</g>
<g>
</g>
<g>
</g>
<g>
</g>
<g>
</g>
<g>
</g>
</svg>
