<?xml version="1.0" encoding="iso-8859-1"?>
<!-- Generator: Adobe Illustrator 19.0.0, SVG Export Plug-In . SVG Version: 6.00 Build 0)  -->
<svg version="1.1" id="Capa_1" xmlns="http://www.w3.org/2000/svg" xmlns:xlink="http://www.w3.org/1999/xlink" x="0px" y="0px"
	 viewBox="0 0 512 512" style="enable-background:new 0 0 512 512;" xml:space="preserve">
<circle style="fill:#FFCA28;" cx="256" cy="256" r="256"/>
<g>
	<path style="fill:#6D4C41;" d="M368,160h-80c-8.832,0-16,7.168-16,16s7.168,16,16,16h34.944c-1.792,5.024-2.944,10.368-2.944,16
		c0,26.464,21.536,48,48,48s48-21.536,48-48S394.464,160,368,160z M368,224c-8.8,0-16-7.168-16-16s7.2-16,16-16s16,7.168,16,16
		S376.8,224,368,224z"/>
	<path style="fill:#6D4C41;" d="M192,160h-80c-8.832,0-16,7.168-16,16s7.168,16,16,16h34.944c-1.792,5.024-2.944,10.368-2.944,16
		c0,26.464,21.536,48,48,48s48-21.536,48-48S218.464,160,192,160z M192,224c-8.832,0-16-7.168-16-16s7.168-16,16-16s16,7.168,16,16
		S200.832,224,192,224z"/>
	<path style="fill:#6D4C41;" d="M256,416c-8.832,0-16-7.168-16-16s7.168-16,16-16c34.4,0,66.496-13.312,90.368-37.504
		c6.208-6.24,16.32-6.336,22.624-0.128c6.272,6.176,6.336,16.32,0.128,22.624C339.232,399.328,299.04,416,256,416z"/>
</g>
<g>
</g>
<g>
</g>
<g>
</g>
<g>
</g>
<g>
</g>
<g>
</g>
<g>
</g>
<g>
</g>
<g>
</g>
<g>
</g>
<g>
</g>
<g>
</g>
<g>
</g>
<g>
</g>
<g>
</g>
</svg>
