<?xml version="1.0" encoding="iso-8859-1"?>
<!-- Generator: Adobe Illustrator 19.0.0, SVG Export Plug-In . SVG Version: 6.00 Build 0)  -->
<svg version="1.1" id="Capa_1" xmlns="http://www.w3.org/2000/svg" xmlns:xlink="http://www.w3.org/1999/xlink" x="0px" y="0px"
	 viewBox="0 0 512 512" style="enable-background:new 0 0 512 512;" xml:space="preserve">
<circle style="fill:#FFCA28;" cx="256" cy="256" r="256"/>
<g>
	<path style="fill:#6D4C41;" d="M368,256c-3.328,0-6.72-1.056-9.6-3.2l-64-48c-4.032-3.008-6.4-7.776-6.4-12.8s2.368-9.792,6.4-12.8
		l64-48c7.04-5.28,17.056-3.904,22.4,3.2c5.28,7.072,3.84,17.088-3.232,22.4L330.656,192l46.944,35.2
		c7.072,5.312,8.512,15.328,3.232,22.4C377.664,253.792,372.832,256,368,256z"/>
	<path style="fill:#6D4C41;" d="M144,256c-4.864,0-9.664-2.208-12.8-6.4c-5.312-7.072-3.872-17.088,3.2-22.4l46.944-35.2
		L134.4,156.8c-7.072-5.312-8.512-15.328-3.2-22.4c5.312-7.072,15.328-8.512,22.4-3.2l64,48c4.032,3.008,6.4,7.776,6.4,12.8
		s-2.368,9.792-6.4,12.8l-64,48C150.72,254.944,147.36,256,144,256z"/>
	<path style="fill:#6D4C41;" d="M384,384c-2.4,0-4.832-0.544-7.168-1.696L320,353.888l-56.832,28.448
		c-4.512,2.24-9.824,2.24-14.304,0L192,353.888l-56.832,28.448c-7.904,4-17.504,0.704-21.472-7.168
		c-3.968-7.904-0.736-17.504,7.168-21.472l64-32c4.512-2.24,9.824-2.24,14.304,0L256,350.112l56.832-28.448
		c4.512-2.24,9.824-2.24,14.304,0l64,32c7.904,3.968,11.104,13.568,7.168,21.472C395.488,380.736,389.856,384,384,384z"/>
</g>
<g>
</g>
<g>
</g>
<g>
</g>
<g>
</g>
<g>
</g>
<g>
</g>
<g>
</g>
<g>
</g>
<g>
</g>
<g>
</g>
<g>
</g>
<g>
</g>
<g>
</g>
<g>
</g>
<g>
</g>
</svg>
