<?xml version="1.0" encoding="iso-8859-1"?>
<!-- Generator: Adobe Illustrator 19.0.0, SVG Export Plug-In . SVG Version: 6.00 Build 0)  -->
<svg version="1.1" id="Capa_1" xmlns="http://www.w3.org/2000/svg" xmlns:xlink="http://www.w3.org/1999/xlink" x="0px" y="0px"
	 viewBox="0 0 512 512" style="enable-background:new 0 0 512 512;" xml:space="preserve">
<circle style="fill:#ECEFF1;" cx="256" cy="256" r="256"/>
<circle style="fill:#F44336;" cx="256" cy="272" r="32"/>
<path style="fill:#FAFAFA;" d="M380.448,335.2c-12.512-12.512-32.736-12.512-45.248,0c-42.304,42.304-116.096,42.272-158.4,0
	c-12.512-12.512-32.736-12.512-45.248,0s-12.512,32.736,0,45.248C164.768,413.696,208.992,432,256,432s91.232-18.304,124.448-51.552
	C392.928,367.936,392.928,347.68,380.448,335.2z"/>
<path style="fill:#F44336;" d="M391.744,323.872c-18.688-18.688-49.184-18.688-67.872,0c-36.192,36.224-99.616,36.16-135.776,0
	c-18.72-18.688-49.152-18.688-67.872,0c-18.72,18.72-18.72,49.152,0,67.872C156.48,428.032,204.704,448,256,448
	c51.328,0,99.488-19.968,135.744-56.256C410.464,373.024,410.464,342.592,391.744,323.872z M369.12,369.12
	C338.912,399.328,298.752,416,256,416s-82.912-16.672-113.152-46.88c-6.24-6.24-6.24-16.384,0-22.624
	c3.136-3.136,7.232-4.672,11.328-4.672s8.192,1.568,11.328,4.672c48.256,48.224,132.864,48.192,181.024,0
	c6.24-6.24,16.384-6.24,22.624,0S375.36,362.88,369.12,369.12z"/>
<g>
	<path style="fill:#9C27B0;" d="M112,0c-7.744,0-15.328,1.92-22.144,5.504C81.888,1.856,73.216,0,64,0C28.704,0,0,28.704,0,64
		c0,9.216,1.856,17.888,5.504,25.856C1.92,96.672,0,104.256,0,112c0,26.464,21.536,48,48,48c23.84,0,43.68-17.472,47.36-40.288
		c10.272-5.6,18.72-14.08,24.352-24.352C142.528,91.68,160,71.84,160,48C160,21.536,138.464,0,112,0z"/>
	<path style="fill:#9C27B0;" d="M512,64c0-35.296-28.704-64-64-64c-9.056,0-17.824,1.888-25.824,5.504C415.328,1.92,407.744,0,400,0
		c-26.464,0-48,21.536-48,48c0,23.84,17.472,43.68,40.288,47.36c5.632,10.272,14.08,18.72,24.352,24.352
		C420.32,142.528,440.16,160,464,160c26.464,0,48-21.536,48-48c0-7.744-1.92-15.328-5.504-22.176C510.144,81.856,512,73.216,512,64z
		"/>
</g>
<g>
	<path style="fill:#455A64;" d="M368,256c-3.328,0-6.72-1.056-9.6-3.2l-64-48c-4.032-3.008-6.4-7.776-6.4-12.8s2.368-9.792,6.4-12.8
		l64-48c7.04-5.28,17.056-3.904,22.4,3.2c5.28,7.072,3.84,17.088-3.232,22.4L330.656,192l46.944,35.2
		c7.072,5.312,8.512,15.328,3.232,22.4C377.664,253.792,372.832,256,368,256z"/>
	<path style="fill:#455A64;" d="M144,256c-4.864,0-9.664-2.208-12.8-6.4c-5.312-7.072-3.872-17.088,3.2-22.4l46.944-35.2
		L134.4,156.8c-7.072-5.312-8.512-15.328-3.2-22.4c5.312-7.072,15.328-8.512,22.4-3.2l64,48c4.032,3.008,6.4,7.776,6.4,12.8
		s-2.368,9.792-6.4,12.8l-64,48C150.72,254.944,147.36,256,144,256z"/>
</g>
<g>
</g>
<g>
</g>
<g>
</g>
<g>
</g>
<g>
</g>
<g>
</g>
<g>
</g>
<g>
</g>
<g>
</g>
<g>
</g>
<g>
</g>
<g>
</g>
<g>
</g>
<g>
</g>
<g>
</g>
</svg>
