<?xml version="1.0" encoding="iso-8859-1"?>
<!-- Generator: Adobe Illustrator 19.0.0, SVG Export Plug-In . SVG Version: 6.00 Build 0)  -->
<svg version="1.1" id="Capa_1" xmlns="http://www.w3.org/2000/svg" xmlns:xlink="http://www.w3.org/1999/xlink" x="0px" y="0px"
	 viewBox="0 0 512 512" style="enable-background:new 0 0 512 512;" xml:space="preserve">
<circle style="fill:#FFCA28;" cx="256" cy="256" r="256"/>
<g>
	<circle style="fill:#6D4C41;" cx="160" cy="192" r="32"/>
	<circle style="fill:#6D4C41;" cx="352" cy="192" r="32"/>
	<path style="fill:#6D4C41;" d="M344.224,386.272L287.104,352l57.12-34.272c7.584-4.544,10.048-14.368,5.504-21.952
		c-4.544-7.584-14.432-10.048-21.952-5.504L256,333.344l-71.776-43.072c-7.584-4.576-17.408-2.048-21.952,5.504
		s-2.08,17.408,5.504,21.952L224.896,352l-57.152,34.272c-7.584,4.544-10.016,14.368-5.472,21.952
		C165.28,413.216,170.592,416,176,416c2.784,0,5.632-0.704,8.224-2.272L256,370.656l71.776,43.072
		c2.56,1.568,5.408,2.272,8.224,2.272c5.408,0,10.72-2.784,13.728-7.776C354.272,400.672,351.808,390.816,344.224,386.272z"/>
</g>
<g>
</g>
<g>
</g>
<g>
</g>
<g>
</g>
<g>
</g>
<g>
</g>
<g>
</g>
<g>
</g>
<g>
</g>
<g>
</g>
<g>
</g>
<g>
</g>
<g>
</g>
<g>
</g>
<g>
</g>
</svg>
