<?xml version="1.0" encoding="iso-8859-1"?>
<!-- Generator: Adobe Illustrator 19.0.0, SVG Export Plug-In . SVG Version: 6.00 Build 0)  -->
<svg version="1.1" id="Capa_1" xmlns="http://www.w3.org/2000/svg" xmlns:xlink="http://www.w3.org/1999/xlink" x="0px" y="0px"
	 viewBox="0 0 512 512" style="enable-background:new 0 0 512 512;" xml:space="preserve">
<path style="fill:#FFCA28;" d="M303.992,192c0-17.664,14.336-32,32-32l0,0c17.664,0,32,14.336,32,32v48v-32c0-17.6,14.4-32,32-32
	s32,14.4,32,32v160c0,35.2-28.8,64-64,64h-16h-127.36c-10.432,0-20.192-5.088-26.176-13.6L87.128,259.84
	c-11.2-13.76-8.96-33.92,5.12-44.8c13.76-11.2,33.92-8.96,44.8,5.12l38.944,48.96V32c0-17.6,14.4-32,32-32s32,14.4,32,32v208v-64
	c0-17.664,14.336-32,32-32l0,0c17.664,0,32,14.336,32,32v48"/>
<path style="fill:#263238;" d="M175.992,496v-64c0-8.832,6.368-16,14.208-16h227.552c7.872,0,14.24,7.168,14.24,16v64
	c0,8.832-6.368,16-14.208,16H190.2C182.36,512,175.992,504.832,175.992,496z"/>
<g>
</g>
<g>
</g>
<g>
</g>
<g>
</g>
<g>
</g>
<g>
</g>
<g>
</g>
<g>
</g>
<g>
</g>
<g>
</g>
<g>
</g>
<g>
</g>
<g>
</g>
<g>
</g>
<g>
</g>
</svg>
