<?xml version="1.0" encoding="iso-8859-1"?>
<!-- Generator: Adobe Illustrator 19.0.0, SVG Export Plug-In . SVG Version: 6.00 Build 0)  -->
<svg version="1.1" id="Capa_1" xmlns="http://www.w3.org/2000/svg" xmlns:xlink="http://www.w3.org/1999/xlink" x="0px" y="0px"
	 viewBox="0 0 512 512" style="enable-background:new 0 0 512 512;" xml:space="preserve">
<path style="fill:#FFCA28;" d="M320,303.992c17.664,0,32,14.336,32,32l0,0c0,17.664-14.336,32-32,32h-48h32c17.6,0,32,14.4,32,32
	s-14.4,32-32,32H144c-35.2,0-64-28.8-64-64v-16v-127.36c0-10.432,5.088-20.192,13.6-26.176L252.16,87.128
	c13.76-11.2,33.92-8.96,44.8,5.12c11.2,13.76,8.96,33.92-5.12,44.8l-48.96,38.944H480c17.6,0,32,14.4,32,32s-14.4,32-32,32H272h64
	c17.664,0,32,14.336,32,32l0,0c0,17.664-14.336,32-32,32h-48"/>
<path style="fill:#263238;" d="M16,175.992h64c8.832,0,16,6.368,16,14.208v227.552c0,7.872-7.168,14.24-16,14.24H16
	c-8.832,0-16-6.368-16-14.208V190.232C0,182.36,7.168,175.992,16,175.992z"/>
<g>
</g>
<g>
</g>
<g>
</g>
<g>
</g>
<g>
</g>
<g>
</g>
<g>
</g>
<g>
</g>
<g>
</g>
<g>
</g>
<g>
</g>
<g>
</g>
<g>
</g>
<g>
</g>
<g>
</g>
</svg>
