<?xml version="1.0" encoding="iso-8859-1"?>
<!-- Generator: Adobe Illustrator 19.0.0, SVG Export Plug-In . SVG Version: 6.00 Build 0)  -->
<svg version="1.1" id="Capa_1" xmlns="http://www.w3.org/2000/svg" xmlns:xlink="http://www.w3.org/1999/xlink" x="0px" y="0px"
	 viewBox="0 0 512 512" style="enable-background:new 0 0 512 512;" xml:space="preserve">
<path style="fill:#FFCA28;" d="M224,303.992h-48c-17.664,0-32-14.336-32-32l0,0c0-17.664,14.336-32,32-32h64H32
	c-17.6,0-32-14.4-32-32s14.4-32,32-32h237.12l-48.96-38.944c-14.08-10.88-16.32-31.04-5.12-44.8c10.88-14.08,31.04-16.32,44.8-5.12
	L418.4,198.456c8.512,5.984,13.6,15.744,13.6,26.176v127.36v16c0,35.2-28.8,64-64,64H208c-17.6,0-32-14.4-32-32s14.4-32,32-32h32
	h-48c-17.664,0-32-14.336-32-32l0,0c0-17.664,14.336-32,32-32"/>
<path style="fill:#263238;" d="M496,175.992h-64c-8.832,0-16,6.368-16,14.208v227.552c0,7.872,7.168,14.24,16,14.24h64
	c8.832,0,16-6.368,16-14.208V190.2C512,182.36,504.832,175.992,496,175.992z"/>
<g>
</g>
<g>
</g>
<g>
</g>
<g>
</g>
<g>
</g>
<g>
</g>
<g>
</g>
<g>
</g>
<g>
</g>
<g>
</g>
<g>
</g>
<g>
</g>
<g>
</g>
<g>
</g>
<g>
</g>
</svg>
