<?xml version="1.0" encoding="iso-8859-1"?>
<!-- Generator: Adobe Illustrator 19.0.0, SVG Export Plug-In . SVG Version: 6.00 Build 0)  -->
<svg version="1.1" id="Capa_1" xmlns="http://www.w3.org/2000/svg" xmlns:xlink="http://www.w3.org/1999/xlink" x="0px" y="0px"
	 viewBox="0 0 512 512" style="enable-background:new 0 0 512 512;" xml:space="preserve">
<path style="fill:#FFCA28;" d="M208.008,320c0,17.664-14.336,32-32,32l0,0c-17.664,0-32-14.336-32-32v-48v32c0,17.6-14.4,32-32,32
	s-32-14.4-32-32V144c0-35.2,28.8-64,64-64h16h127.36c10.432,0,20.192,5.088,26.176,13.6l111.328,158.56
	c11.2,13.76,8.96,33.92-5.12,44.8c-13.76,11.2-33.92,8.96-44.8-5.12l-38.944-48.96V480c0,17.6-14.4,32-32,32s-32-14.4-32-32V272v64
	c0,17.664-14.336,32-32,32l0,0c-17.664,0-32-14.336-32-32v-48"/>
<path style="fill:#263238;" d="M336.008,16v64c0,8.832-6.368,16-14.208,16H94.216c-7.84,0-14.208-7.168-14.208-16V16
	c0-8.832,6.368-16,14.208-16h227.552C329.64,0,336.008,7.168,336.008,16z"/>
<g>
</g>
<g>
</g>
<g>
</g>
<g>
</g>
<g>
</g>
<g>
</g>
<g>
</g>
<g>
</g>
<g>
</g>
<g>
</g>
<g>
</g>
<g>
</g>
<g>
</g>
<g>
</g>
<g>
</g>
</svg>
