<?xml version="1.0" encoding="iso-8859-1"?>
<!-- Generator: Adobe Illustrator 19.0.0, SVG Export Plug-In . SVG Version: 6.00 Build 0)  -->
<svg version="1.1" id="Capa_1" xmlns="http://www.w3.org/2000/svg" xmlns:xlink="http://www.w3.org/1999/xlink" x="0px" y="0px"
	 viewBox="0 0 512.32 512.32" style="enable-background:new 0 0 512.32 512.32;" xml:space="preserve">
<circle style="fill:#ECEFF1;" cx="256.32" cy="256.16" r="256"/>
<circle style="fill:#F44336;" cx="256" cy="272.48" r="32"/>
<path style="fill:#FAFAFA;" d="M380.448,335.68c-12.512-12.512-32.736-12.512-45.248,0c-42.304,42.304-116.096,42.272-158.4,0
	c-12.512-12.512-32.736-12.512-45.248,0s-12.512,32.736,0,45.248c33.216,33.248,77.44,51.552,124.448,51.552
	s91.232-18.304,124.448-51.552C392.928,368.416,392.928,348.16,380.448,335.68z"/>
<path style="fill:#F44336;" d="M391.744,324.352c-18.688-18.688-49.184-18.688-67.872,0c-36.192,36.224-99.616,36.16-135.776,0
	c-18.72-18.688-49.152-18.688-67.872,0c-18.72,18.72-18.72,49.152,0,67.872C156.48,428.512,204.704,448.48,256,448.48
	c51.328,0,99.488-19.968,135.744-56.256C410.464,373.504,410.464,343.072,391.744,324.352z M369.12,369.6
	c-30.208,30.208-70.368,46.88-113.12,46.88s-82.912-16.672-113.152-46.88c-6.24-6.24-6.24-16.384,0-22.624
	c3.136-3.136,7.232-4.672,11.328-4.672s8.192,1.568,11.328,4.672c48.256,48.224,132.864,48.192,181.024,0
	c6.24-6.24,16.384-6.24,22.624,0S375.36,363.36,369.12,369.6z"/>
<g>
	<path style="fill:#9C27B0;" d="M112,0.48c-7.744,0-15.328,1.92-22.144,5.504C81.888,2.336,73.216,0.48,64,0.48
		c-35.296,0-64,28.704-64,64c0,9.216,1.856,17.888,5.504,25.856C1.92,97.152,0,104.736,0,112.48c0,26.464,21.536,48,48,48
		c23.84,0,43.68-17.472,47.36-40.288c10.272-5.6,18.72-14.08,24.352-24.352C142.528,92.16,160,72.32,160,48.48
		C160,22.016,138.464,0.48,112,0.48z"/>
	<path style="fill:#9C27B0;" d="M512,64.48c0-35.296-28.704-64-64-64c-9.056,0-17.824,1.888-25.824,5.504
		C415.328,2.4,407.744,0.48,400,0.48c-26.464,0-48,21.536-48,48c0,23.84,17.472,43.68,40.288,47.36
		c5.632,10.272,14.08,18.72,24.352,24.352c3.68,22.816,23.52,40.288,47.36,40.288c26.464,0,48-21.536,48-48
		c0-7.744-1.92-15.328-5.504-22.176C510.144,82.336,512,73.696,512,64.48z"/>
</g>
<g>
	<path style="fill:#455A64;" d="M206.176,171.168L206.176,171.168l-68.128-55.136c-6.848-5.536-16.96-4.448-22.496,2.4
		c-5.568,6.848-4.48,16.928,2.4,22.496l33.088,26.784C137.28,176.128,128,191.2,128,208.48c0,26.464,21.536,48,48,48
		s48-21.536,48-48C224,193.92,217.504,180.32,206.176,171.168L206.176,171.168z M176,224.48c-8.832,0-16-7.168-16-16s7.168-16,16-16
		c4.672,0,8.032,1.92,10.016,3.52l0.032,0.032c3.776,3.072,5.952,7.584,5.952,12.448C192,217.312,184.832,224.48,176,224.48z"/>
	<path style="fill:#455A64;" d="M396.448,118.432c-5.536-6.88-15.616-7.936-22.496-2.368l-68.128,55.072
		C294.496,180.288,288,193.888,288,208.48c0,26.464,21.536,48,48,48s48-21.536,48-48c0-17.28-9.28-32.352-23.04-40.8l33.088-26.752
		C400.928,135.36,401.984,125.28,396.448,118.432z M336,192.48c8.8,0,16,7.168,16,16s-7.2,16-16,16s-16-7.168-16-16
		c0-4.864,2.144-9.408,5.952-12.448C327.936,194.4,331.328,192.48,336,192.48z"/>
</g>
<g>
</g>
<g>
</g>
<g>
</g>
<g>
</g>
<g>
</g>
<g>
</g>
<g>
</g>
<g>
</g>
<g>
</g>
<g>
</g>
<g>
</g>
<g>
</g>
<g>
</g>
<g>
</g>
<g>
</g>
</svg>
