<?xml version="1.0" encoding="iso-8859-1"?>
<!-- Generator: Adobe Illustrator 19.0.0, SVG Export Plug-In . SVG Version: 6.00 Build 0)  -->
<svg version="1.1" id="Capa_1" xmlns="http://www.w3.org/2000/svg" xmlns:xlink="http://www.w3.org/1999/xlink" x="0px" y="0px"
	 viewBox="0 0 512 512" style="enable-background:new 0 0 512 512;" xml:space="preserve">
<path style="fill:#8BC34A;" d="M256,0C132.48,0,32,100.48,32,224c0,115.968,94.048,288,224,288s224-172.032,224-288
	C480,100.48,379.488,0,256,0z"/>
<g>
	<path style="fill:#263238;" d="M415.84,173.728c-0.576-4.192-2.848-7.968-6.24-10.528c-3.36-2.56-7.616-3.584-11.84-3.04
		c-70.496,10.08-119.68,75.616-109.6,146.08c1.152,8,8,13.76,15.808,13.76c0.736,0,1.536-0.064,2.272-0.16
		c34.144-4.864,64.384-22.784,85.056-50.368C412,241.888,420.704,207.904,415.84,173.728z"/>
	<path style="fill:#263238;" d="M114.272,160.16c-8.64-1.184-16.864,4.832-18.112,13.568c-4.864,34.144,3.84,68.16,24.544,95.744
		c20.672,27.584,50.912,45.472,85.056,50.368c0.736,0.096,1.504,0.16,2.24,0.16c7.84,0,14.688-5.76,15.84-13.76
		c4.864-34.144-3.84-68.128-24.544-95.744C178.624,182.912,148.416,165.056,114.272,160.16z"/>
</g>
<g>
</g>
<g>
</g>
<g>
</g>
<g>
</g>
<g>
</g>
<g>
</g>
<g>
</g>
<g>
</g>
<g>
</g>
<g>
</g>
<g>
</g>
<g>
</g>
<g>
</g>
<g>
</g>
<g>
</g>
</svg>
