<?xml version="1.0" encoding="iso-8859-1"?>
<!-- Generator: Adobe Illustrator 19.0.0, SVG Export Plug-In . SVG Version: 6.00 Build 0)  -->
<svg version="1.1" id="Capa_1" xmlns="http://www.w3.org/2000/svg" xmlns:xlink="http://www.w3.org/1999/xlink" x="0px" y="0px"
	 viewBox="0 0 512 512" style="enable-background:new 0 0 512 512;" xml:space="preserve">
<path style="fill:#CAE8F9;" d="M467,16H45C20.098,16,0,36.099,0,61v300c0,24.899,20.098,45,45,45h46v75c0,6,3.6,11.4,9.302,13.799
	C102.1,495.7,104.198,496,106,496c3.9,0,7.8-1.5,10.499-4.501l85.8-85.499H467c24.902,0,45-20.101,45-45V61
	C512,36.099,491.902,16,467,16z"/>
<path style="fill:#B7E0F6;" d="M512,61v300c0,24.899-20.098,45-45,45H256V16h211C491.902,16,512,36.099,512,61z"/>
<path style="fill:#FEC478;" d="M316,195.063l-17.549-11.336C281.334,172.674,271,153.695,271,133.325V91c0-8.286-6.716-15-15-15
	c-24.851,0-45,20.147-45,45v60h-60.908c-18.929,0-33.127,17.32-29.414,35.883l17.999,105C141.479,335.905,153.794,346,168.095,346
	h84.155c13.242,0,26.389-2.192,38.914-6.486l24.847-8.518L316,195.063z"/>
<path style="fill:#FEB756;" d="M291.164,339.514l24.847-8.518L316,195.063l-17.549-11.336C281.334,172.674,271,153.695,271,133.325
	V91c0-8.286-6.716-15-15-15v269.689C267.96,345.313,279.829,343.4,291.164,339.514z"/>
<path style="fill:#1689FC;" d="M376,346h-45c-8.284,0-15-6.716-15-15V196c0-8.284,6.716-15,15-15h45V346z"/>
<g>
</g>
<g>
</g>
<g>
</g>
<g>
</g>
<g>
</g>
<g>
</g>
<g>
</g>
<g>
</g>
<g>
</g>
<g>
</g>
<g>
</g>
<g>
</g>
<g>
</g>
<g>
</g>
<g>
</g>
</svg>
